<?xml version="1.0" encoding="utf-8"?>
<!-- Generator: Adobe Illustrator 24.3.0, SVG Export Plug-In . SVG Version: 6.00 Build 0)  -->
<svg version="1.1" id="Layer_1" xmlns="http://www.w3.org/2000/svg" xmlns:xlink="http://www.w3.org/1999/xlink" x="0px" y="0px"
	 viewBox="0 0 720 720" style="enable-background:new 0 0 720 720;" xml:space="preserve">
<style type="text/css">
	.st0{fill-rule:evenodd;clip-rule:evenodd;fill:#308484;}
	.st1{fill-rule:evenodd;clip-rule:evenodd;fill:#060606;}
	.st2{fill-rule:evenodd;clip-rule:evenodd;fill:#A0D6BC;}
	.st3{fill-rule:evenodd;clip-rule:evenodd;fill:#7AC258;}
	.st4{fill-rule:evenodd;clip-rule:evenodd;fill:#639E45;}
	.st5{fill-rule:evenodd;clip-rule:evenodd;fill:#79C5A2;}
	.st6{fill-rule:evenodd;clip-rule:evenodd;fill:#7AC5A2;}
	.st7{fill-rule:evenodd;clip-rule:evenodd;fill:#B1D89C;}
	.st8{fill-rule:evenodd;clip-rule:evenodd;fill:#C5E5D6;}
	.st9{fill-rule:evenodd;clip-rule:evenodd;fill:#C4E5D5;}
	.st10{fill-rule:evenodd;clip-rule:evenodd;fill:#F7F8F8;}
	.st11{fill-rule:evenodd;clip-rule:evenodd;fill:#0C100F;}
	.st12{fill-rule:evenodd;clip-rule:evenodd;fill:#F6F6F6;}
	.st13{fill-rule:evenodd;clip-rule:evenodd;fill:#C9C9C9;}
	.st14{fill-rule:evenodd;clip-rule:evenodd;fill:#CACACA;}
	.st15{fill-rule:evenodd;clip-rule:evenodd;fill:#B0D89A;}
	.st16{fill-rule:evenodd;clip-rule:evenodd;fill:#639F45;}
	.st17{fill-rule:evenodd;clip-rule:evenodd;fill:#F5F6F6;}
	.st18{fill-rule:evenodd;clip-rule:evenodd;fill:#629C44;}
	.st19{fill-rule:evenodd;clip-rule:evenodd;fill:#0B0A0A;}
	.st20{fill-rule:evenodd;clip-rule:evenodd;fill:#0D0A0B;}
	.st21{fill-rule:evenodd;clip-rule:evenodd;fill:#0C090A;}
	.st22{fill-rule:evenodd;clip-rule:evenodd;fill:#0A0F0E;}
	.st23{fill-rule:evenodd;clip-rule:evenodd;fill:#0C1010;}
	.st24{fill-rule:evenodd;clip-rule:evenodd;fill:#0C1311;}
	.st25{fill-rule:evenodd;clip-rule:evenodd;fill:#111916;}
	.st26{fill-rule:evenodd;clip-rule:evenodd;fill:#222C27;}
	.st27{fill-rule:evenodd;clip-rule:evenodd;fill:#17251F;}
	.st28{fill-rule:evenodd;clip-rule:evenodd;fill:#0B1110;}
	.st29{fill-rule:evenodd;clip-rule:evenodd;fill:#F69DA2;}
	.st30{fill-rule:evenodd;clip-rule:evenodd;fill:#CC8085;}
	.st31{fill-rule:evenodd;clip-rule:evenodd;fill:#291B1B;}
	.st32{fill-rule:evenodd;clip-rule:evenodd;fill:#E73865;}
	.st33{fill-rule:evenodd;clip-rule:evenodd;fill:#FAF8F7;}
	.st34{fill-rule:evenodd;clip-rule:evenodd;fill:#FAF7F7;}
	.st35{fill-rule:evenodd;clip-rule:evenodd;fill:#E9E5E5;}
	.st36{fill-rule:evenodd;clip-rule:evenodd;fill:#E8E5E5;}
	.st37{fill-rule:evenodd;clip-rule:evenodd;fill:#E73864;}
	.st38{fill-rule:evenodd;clip-rule:evenodd;fill:#EBE9E8;}
	.st39{fill-rule:evenodd;clip-rule:evenodd;fill:#286C6F;}
</style>
<path class="st0" d="M644.15,458.87c-3.84-11.73-9-22.91-13.54-32.31c-10.6-21.93-22.51-46.57-41.7-66.83
	c8.24-6.95,16.58-14.84,22.73-25.09c8.01-13.35,11.48-28.42,10.32-44.8c-0.93-13.04-2.99-30.03-10.81-45.86
	c-9.88-19.99-24.95-37.27-44.8-51.36c-10.75-7.64-22.21-14.34-33.28-20.83c-6.18-3.62-12.57-7.36-18.74-11.21
	c-13.17-8.22-25.6-15.98-31.12-30.32c-0.75-1.95-1.68-3.72-2.57-5.43c-1.96-3.75-3.14-6.18-2.65-8.84c0.2-1.09,0.81-4.4-1.41-7.07
	c-0.76-0.91-2.47-2.43-5.43-2.43c-1.03,0-1.99,0.18-2.8,0.37c-1.76,0.4-3.94,0.89-6.19,1.86c-1.23-2.25-3.4-4.51-7.31-4.51
	c-1.52,0-3.11,0.35-5.31,1.17l-0.15,0.05c-1.54,0.57-3.22,1.2-4.88,2.03c-0.34-0.29-0.68-0.57-1-0.83
	c-0.29-0.23-0.58-0.47-0.86-0.71c-2.42-2.06-5.32-4.26-9.03-4.26c-2.39,0-4.45,0.91-6.24,2.1c-1.51-1.97-4.01-4.61-8.07-4.61
	c-0.59,0-1.19,0.06-1.79,0.18c-2.4,0.48-3.93,1.67-4.94,3.04c-1.16-0.57-2.47-0.98-3.92-0.98c-3.6,0-6.31,2.27-8.06,6.76
	c-0.51,1.31-0.98,2.63-1.45,3.95c-0.83,2.33-1.61,4.54-2.58,6.57c-4.43,9.3-8.38,16.81-15.44,21.83c-6.5,4.62-14.09,8.5-23.89,12.2
	c-31.78,11.99-61.72,27.54-88.98,46.2c-23.42,16.04-36.16,34.13-40.08,56.94c-0.48,2.79-1.1,5.54-1.76,8.46
	c-1.56,6.9-3.16,14.02-2.81,21.63c-0.58,0.35-1.13,0.71-1.65,1.05c-1.94,1.26-3.18,2.03-4.32,2.03l-0.16,0
	c-2.15-0.13-4.36-0.19-6.75-0.19c-5.08,0-10.16,0.28-15.08,0.55l-0.65,0.04c-20.71,1.15-37.05,4.76-51.41,11.38
	c-5.06,2.33-7.51,6.1-7.49,11.54l0.01,4.93c0.03,15.11,0.07,30.73,1.73,46.18c1.04,9.67,2.77,20.73,9.96,30.21l0.07,4.11
	c0.15,8.97,0.3,18.25,0.54,27.39c-4.65,3.17-8.17,7.18-11.66,11.36c-8.29,9.92-14.75,20.81-20.49,31.1l-1.45,2.6
	c-7.01,12.51-14.25,25.45-17.99,40.16c-5.45,21.44-7.77,43.67-7.09,67.97c0.01,0.33,0.02,0.66,0.04,0.99
	c0.02,0.39,0.04,0.9,0.04,1.32c-3,0.94-4.78,3.48-5.98,5.16l-0.4,0.56c-4.55,6.23-7.75,13.07-10.64,19.55
	c-1.47,3.28-0.9,5.83-0.17,7.4c1.7,3.64,5.48,4.7,6.72,5.05c3.9,1.1,7.67,1.24,10.52,1.24c1.3,0,2.61-0.04,3.91-0.07
	c1.88-0.05,3.7-0.22,5.47-0.39c2-0.18,3.89-0.36,5.68-0.36c0.96,0,1.81,0.05,2.59,0.15c4.85,0.64,9.47,0.95,14.11,0.95
	c1.63,0,3.27-0.04,4.88-0.12c2.35-0.11,4.68-0.34,6.93-0.56c3.08-0.3,5.99-0.59,8.83-0.59c0.97,0,1.85,0.03,2.71,0.1l3.76,0.3
	c6.83,0.56,13.89,1.13,20.95,1.13c6.97,0,13.15-0.57,18.92-1.74c4.73-0.96,10.36-3.12,12.01-11.36c1.07-5.35,3.46-10.48,7.73-16.63
	l0.52-0.76c5.18-7.45,10.52-15.13,14.69-23.6c7.26,2.11,14.6,3.85,21.87,5.21c1.82,6.57,3.89,13.73,6.48,22.34
	c-2.59,2.46-4.54,5.2-6.43,7.86c-1.16,1.64-2.26,3.18-3.46,4.58c-3.46,4.06-2.51,7.51-1.63,9.2c0.78,1.52,2.78,4.07,7.36,4.07
	c0.27,0,0.55-0.01,0.82-0.02c1.93-0.08,3.92-0.12,6.08-0.12c5.2,0,10.55,0.24,15.72,0.47c5.3,0.24,10.77,0.48,16.23,0.48
	c5.31,0,10.02-0.23,14.4-0.71c3.93-0.43,7.93-0.44,12.17-0.44c3.57,0,7.26-0.01,10.98-0.29c2.24-0.17,4.31-0.59,6.3-1
	c2.13-0.44,4.15-0.85,6.01-0.85c0.69,0,1.33,0.05,1.93,0.17c2.39,0.45,4.74,0.51,6.52,0.51c0.75,0,1.5-0.01,2.25-0.02
	c0.56-0.01,1.11-0.02,1.67-0.02c5.08-0.03,8.9-2.58,11.04-7.36c2.54-5.69,5.29-11.45,7.94-17.01c1.52-3.18,3.03-6.35,4.54-9.58
	c11.82-0.65,25.66-1.71,39.58-4.44c9.88-1.94,20.27-4.27,29.89-9.47c5.54,7.12,11.86,14.53,19.29,22.6c2.02,2.19,4.13,4.28,6.16,6.3
	c2.63,2.6,5.1,5.07,7.37,7.68c3.53,4.08,7.51,6.07,12.92,6.44c2.79,0.2,5.62,0.29,8.65,0.29c9.3,0,18.57-0.94,27.53-1.84
	c3.67-0.37,7.46-0.75,11.16-1.06c2.53-0.21,5.07-0.38,7.61-0.56c10.06-0.69,20.47-1.41,30.8-4.26c2.71-0.74,6.48-0.82,10.13-0.89
	c0.71-0.01,1.41-0.03,2.1-0.04c6.71-0.18,13.27-1.13,19.61-2.04c5.54-0.8,10.78-1.56,16.11-1.84c5.17-0.28,10-0.86,12.32-4.96
	c2.51-4.44-0.13-9.38-2.25-13.36c-0.88-1.65-2.02-3.06-3.02-4.31c-0.66-0.82-1.76-2.18-1.95-2.77c0.28-1.45,1.59-3.39,2.86-5.27
	c0.75-1.12,1.53-2.27,2.23-3.49c0.23-0.33,0.44-0.68,0.61-1.02c0.73-1.45,1.49-2.9,2.25-4.34c3.24-6.14,6.59-12.49,7.89-20.02
	c2.16-12.43,4.46-27.2,5.27-42.51C648.13,485.55,648.43,471.94,644.15,458.87z"/>
<g id="EWUAiq_1_">
	<g>
		<path class="st1" d="M415.09,111.31c0.39-0.36,0.53-0.43,0.57-0.53c0.79-2.14,0.08-5.45,2.93-6.02c2.81-0.57,4.24,2.33,5.77,4.23
			c1.33,1.66,1.98,2.68,4.24,0.78c4.3-3.62,6.08-3.34,10.45,0.37c1.05,0.9,2.19,1.72,3.14,2.72c0.98,1.03,1.67,1.41,3.11,0.48
			c1.88-1.2,4.05-2,6.16-2.79c4.39-1.64,5.61-0.99,6.8,3.45c0.28,1.05,0.5,2.12,0.89,3.82c2.79-3.71,6.59-4.72,10.4-5.58
			c2.02-0.45,3.6-0.56,3,2.74c-1.22,6.59,3.32,11.58,5.5,17.25c6.19,16.08,19.74,24.54,33.38,33.05
			c17.18,10.72,35.19,20.11,51.72,31.85c18.27,12.97,33.08,29.14,43.05,49.3c6.78,13.71,9.18,28.63,10.25,43.8
			c1.05,14.87-1.86,28.75-9.55,41.57c-5.93,9.88-14.21,17.6-22.96,24.89c-1.06,0.88-2.18,1.7-3.28,2.56
			c20.52,19.76,32.87,44.66,44.98,69.72c4.98,10.31,9.7,20.76,13.26,31.62c3.98,12.17,3.7,24.88,3.04,37.48
			c-0.74,14.06-2.79,27.99-5.19,41.85c-1.45,8.34-5.92,15.43-9.64,22.82c-0.11,0.23-0.28,0.42-0.41,0.64
			c-2.05,3.61-5.23,7.03-5.84,10.87c-0.62,3.92,3.69,6.89,5.57,10.43c4.34,8.14,3.76,9.71-5.49,10.2
			c-11.93,0.64-23.58,3.56-35.57,3.88c-4.5,0.12-9.57,0.04-13.55,1.13c-12.33,3.4-24.99,3.61-37.4,4.64
			c-15.43,1.28-30.89,3.7-46.49,2.6c-3.74-0.26-6.44-1.44-9.12-4.54c-4.26-4.92-9.21-9.29-13.65-14.12
			c-7.09-7.7-13.92-15.6-20.28-23.91c-0.73-0.96-1.04-2.56-3.09-1.3c-9.5,5.82-20.18,8.3-30.93,10.4
			c-13.1,2.57-26.39,3.67-39.7,4.39c-1.76,0.1-2.63,0.56-3.36,2.13c-4.3,9.24-8.83,18.38-12.99,27.68
			c-1.29,2.88-3.18,4.07-6.02,4.09c-3.13,0.02-6.34,0.21-9.39-0.37c-5.44-1.02-10.44,1.2-15.68,1.6c-7.79,0.58-15.63-0.1-23.34,0.75
			c-17.39,1.91-34.71-0.87-52.06-0.14c-1.19,0.05-2.47,0.03-3.03-1.07c-0.57-1.11,0.23-2.26,0.93-3.08
			c3.6-4.2,6.18-9.25,10.45-12.88c1.12-0.95,1.42-1.74,0.99-3.2c-2.47-8.18-4.88-16.38-7.15-24.62c-0.51-1.87-1.42-2.61-3.24-2.94
			c-8.17-1.49-16.24-3.44-24.2-5.83c-1.24-0.37-2.42-0.97-3.34,1.05c-4.25,9.32-10.13,17.69-15.94,26.06
			c-4,5.76-7.21,11.75-8.61,18.69c-0.92,4.57-3.32,6.14-7.69,7.03c-14.05,2.85-28.02,1.32-42.09,0.21
			c-6.32-0.5-12.77,0.73-19.16,1.04c-6.01,0.29-11.97,0-17.99-0.79c-4.77-0.63-9.74,0.4-14.62,0.55c-4.28,0.13-8.6,0.22-12.78-0.96
			c-2.38-0.67-4.34-1.89-3.01-4.88c2.88-6.44,5.89-12.82,10.06-18.54c1.03-1.41,2.18-3.32,3.64-3.73c4.43-1.26,3.81-4.59,3.72-7.71
			c-0.63-22.46,1.37-44.62,6.92-66.45c3.81-14.99,11.5-28.14,18.92-41.43c5.9-10.56,12.13-20.94,19.91-30.25
			c3.22-3.86,6.54-7.68,10.77-10.5c1.65-1.1,2.23-2.42,2.17-4.4c-0.28-10.66-0.44-21.33-0.62-31.99c-0.01-0.77-0.01-1.46-0.54-2.11
			c-6.61-8.24-8.35-18.15-9.44-28.2c-1.81-16.79-1.66-33.67-1.71-50.53c-0.01-3.41,1.25-5.11,4.27-6.5
			c15.7-7.23,32.34-9.93,49.4-10.88c7.28-0.4,14.55-0.83,21.86-0.41c4.77,0.28,7.86-3.61,11.9-5.19c0.2-0.08,0.34-0.63,0.3-0.94
			c-1.29-10.91,2.46-21.12,4.27-31.61c4.1-23.81,18.65-40.24,37.75-53.32c27.4-18.76,56.72-33.86,87.81-45.59
			c8.83-3.33,17.42-7.37,25.15-12.87c8.41-5.98,12.93-14.95,17.23-23.96c1.67-3.5,2.78-7.27,4.19-10.9c1.45-3.74,2.9-4.14,6.15-1.68
			C412.98,109.31,413.95,110.3,415.09,111.31z"/>
		<path class="st2" d="M355.54,562.99c-12.45,2.96-25.18,3.87-37.86,5.07c-33.92,3.21-67.05-0.79-99.45-11.11
			c-10.29-3.28-19.51-8.72-28.19-15.11c1.49-0.93,0.23-1.29-0.39-1.7c-3.7-2.45-6.86-5.57-10.3-8.33
			c-11.28-9.05-16.25-20.8-16.84-35.25c-0.68-16.74-2.04-33.46-2.68-50.21c-0.47-12.08-0.48-24.2,0.4-36.32
			c1.18-16.25,3.02-32.41,5.57-48.48c0.92-5.84,1.87-11.7,4.39-17.19c1.03-2.24-1.19,0.67-1.13-0.52c-0.12-2.5-1.05-1.17-1.73-0.32
			c-2.84,3.53-5.08,7.43-6.74,11.63c-1.6,4.05-2.93,8.2-4.39,12.31c-1.57-1.18-1.77-3.01-2.17-4.7c-3.6-15.34-4.85-30.89-4.32-46.62
			c0.11-3.29,1.74-5.35,4.39-6.99c10.12-6.22,21.21-9.56,32.95-10.2c6.79-0.37,13.6-0.72,20.41-0.89c1.71-0.04,3.59-0.34,4.96,1.2
			c-5.96,4.54-12.16,8.78-17.54,14.05c-0.93,0.91-2.39,1.53-2.31,3.2c0.51,1.42-0.45,2.4-1.06,3.46c-0.76,1.32-1.53,2.61-1.94,4.09
			c-1.34,4.78,1.8,8.43,6.72,7.65c4.57-0.73,8.57-2.9,12.4-5.4c9.61-6.26,18.57-13.5,28.84-18.8c22.27-11.5,45.34-20.23,70.6-22.42
			c10.19-0.88,20.36-1.52,30.58-1.4c7.99,0.09,15.88,0.85,23.51,3.33c3.11,1.01,5.64,0.63,8.52-1.15
			c14.75-9.12,31-13.82,48.15-15.81c9.19-1.07,18.4-0.57,27.6-0.75c2.22-0.04,4.26,0.37,6.03,1.78c2.32,8.55,4.63,17.11,6.95,25.66
			c1.5,9.71-0.94,19.05-2.84,28.41c-1.43,7.05-3.63,13.92-5.38,20.91c-1.66,6.61-1.79,13.18-0.39,19.87
			c4.57,21.75,8.61,43.6,10.83,65.73c1.63,16.2,3.03,32.41,0.36,48.67c-1.13,6.87-3.62,13.06-7.82,18.65
			c-3.34,4.44-6.34,9.12-9.67,13.56c-0.88,1.17-1.53,2.69-3.32,2.82c-0.99-6.16-6.12-7.64-10.83-9.78
			c-7.41-3.37-15.04-6.19-23.16-6.53c-7.02-0.3-14.04,0.88-20.97,2.31c-13.99,2.87-27.52,7.38-41.17,11.48
			c-23.31,7-46.3,15.06-69.92,21.06c-5.67,1.44-11.12,1.38-16.79,0c-16.78-4.1-33.43-8.8-50.46-11.88
			c-6.01-1.09-12.02-1.36-18.08-1.17c-1.68,0.05-3.54,0.3-4.18,2c-0.61,1.61,0.91,2.71,1.92,3.82c4.84,5.31,9.29,10.96,14.41,16.03
			c2.45,2.42,5.14,3.94,8.47,4.59c17.2,3.35,34.5,5.83,52,7.2c14.26,1.12,28.54,0.97,42.76,0.49c23.02-0.78,46.04-2.1,68.73-6.65
			c7.42-1.49,14.65-3.75,21.92-5.8c0.76,0.03,1.67,0.08,1.95,0.84c0.39,1.08-0.62,1.56-1.37,1.9
			C383,551.55,369.91,558.74,355.54,562.99z"/>
		<path class="st2" d="M463.99,508.46c8.41-8.69,10.61-19.74,11.89-31.16c3.44-30.86,1.54-61.48-4.22-91.92
			c-1.3-6.86-4.47-13.11-6.58-19.7c-2.42-7.59-2.14-7,5.18-9.01c7.43-2.04,13.86-2.3,19.9,3.26c1.76,1.62,4.5,2.17,7.03,3.31
			c-2.09,2.22-1.43,4.24,0.61,6.07c8.82,7.94,17.82,15.65,28.03,21.83c3.32,2.01,6.59,2.46,10.45,1.5
			c11.87-2.97,23.73-5.94,35.17-10.33c3.07-1.18,6.06-2.52,8.71-4.51c2.29-1.72,2.84-3.63,0.83-6.08c-2.46-3.01-4.71-6.2-7.02-9.27
			c3.09-2.69,5.5-1.93,8.19,0.66c9.46,9.12,16.64,19.94,23.31,31.11c11.6,19.42,21.23,39.81,29.69,60.78
			c5.49,13.62,5.85,27.79,5.07,42.11c-0.23,4.27-0.11,8.6-1.21,12.79c-1,2.62-3.28,4.05-5.31,5.74
			c-5.55,4.62-11.58,8.44-18.31,11.15c-15.49,6.26-29.89,2.75-43.78-4.91c-3.29-1.82-6.65-3.6-9.39-6.27
			c-2.25-8.51-4.47-17.02-7.89-25.17c-4.89-11.64-9.94-23.24-16.73-33.87c-3.51-5.49-1.31-9.95,0.92-14.45
			c4.5-9.09,11.56-15.79,16.9-18.42c-6.63,3.48-14.4,11.25-18.66,22.32c-0.46,1.2-0.34,3.18-2.12,3.19
			c-1.5,0.01-2.03-1.67-2.75-2.84c-8.73-14.09-18.46-27.43-30.14-39.23c-4.16-4.21-8.6-8.17-12.76-10.86
			c12.44,8.89,22.81,21.15,32.28,34.22c11.28,15.58,20.61,32.3,28.64,49.75c6.55,14.25,12.04,28.91,13.31,44.67
			c0.66,8.14,0.55,16.37-0.25,24.57c-0.6,6.17-1.66,12.24-2.63,18.34c-0.47,2.93-1.69,5.07-4.51,6.5c-3.25,1.65-4.84,5.04-6.99,7.82
			c-2.51,3.25-4.03,3.47-5.76-0.19c-3.56-7.56-7.21-7.06-13.78-2.38c-3.74,2.66-6.63,6.2-9.94,9.31c-1.19,1.12-2.23,2.43-3.93,2.85
			c-4.95-4.65-9.29-9.99-15.06-13.76c-0.7-0.79-0.91-1.76-1.07-2.77c-1.53-9.38-4-18.44-9.09-26.61c-0.53-0.85-0.92-1.79-0.99-2.82
			c0.29-2.37,2.49-3.38,3.73-5.07c2.7-3.69,3.4-7.56,1.7-11.76c-2.48-6.15-6.71-10.94-12.18-14.59c-3.35-2.24-7.03-2.61-10.84-1.08
			c-1.16,0.46-2.29,1.11-3.62,0.87C465.88,512.82,464.14,511.2,463.99,508.46z"/>
		<path class="st3" d="M419.29,106.58c4.2,2.5,5.99,7.21,9.59,10.76c0.55-2.25-2.84-4.04,0.37-6.17c3.97-2.63,5.21-2.97,8.83,0.24
			c0.66,0.59,1.24,1.28,1.96,1.78c1.9,1.34,2.94,2.83,1.08,5.33c3.58-2.97,7.11-5.35,11.36-6.63c2.42-0.73,3.49-0.09,4.08,2.22
			c0.92,3.6,1.01,7.23,0.44,10.87c-2.53,16.14,2.4,29.94,13.35,41.68c11.37,12.19,23.7,23.45,34.77,35.92
			c9.48,10.68,18.55,21.69,25.83,34.03c5.09,8.62,9.3,17.59,10.58,27.72c0.77,6.09-0.39,11.77-2.61,17.36
			c-1.26,0.12-1.32-0.92-1.6-1.7c-5.13-14.35-21.53-23.8-36.45-21.08c-10.31,1.87-19.61,6.29-28.7,11.23
			c-4.31,2.34-8.5,4.91-12.69,7.46c-0.94,0.57-1.77,1.5-3.07,1.08c-1.03-3.49-2.05-6.99-3.11-10.48c-0.57-1.9-1.46-3.51-3.75-3.7
			c-17.89-1.49-35.76-2.52-53.4,2.13c-7.29,1.92-13.58,6-20.1,9.55c-2.65,1.44-5.03,1.68-7.86,0.93
			c-6.21-1.63-12.48-3.02-18.73-4.51c-8.99-5.44-14.69-13.31-17.32-23.45c-0.08-2.57-0.31-5.15,0.49-7.66
			c1.72,1.63,1.07,3.4,0.28,5.12c5.73-8.75,11.46-17.4,20.24-23.76c15.53-11.24,31.13-22.43,44.78-36.04
			c6.79-6.77,11.35-14.47,13.03-24.17c3-17.28,6.14-34.52,7.46-52.03C418.54,109.2,418.5,107.8,419.29,106.58z"/>
		<path class="st4" d="M456.42,278.66c13.96-9.27,28.28-17.91,45.08-20.87c10.72-1.89,20.02,2.05,28.13,8.92
			c4.68,3.96,8.05,8.83,9.3,14.97c-5.56,18.04-11.04,36.12-24.74,50.5c2.06,0.52,2.65-0.97,3.46-1.85
			c7.58-8.21,12.01-18.2,16.02-28.42c0.68-1.74,1.45-3.46,2.18-5.18c1.35,1.09,1.09,2.74,1.39,4.17c0.5,2.35,0.95,4.68,2.21,6.78
			c2.14,3.55,5.11,4.65,8.99,3.27c2.4-0.86,4.45-2.31,6.51-3.78c9.32-6.69,18.96-12.81,29.76-16.95c8.55-3.28,17.21-4.84,26.18-2.32
			c2.8,0.78,1.98-2.03,3.28-2.59c2.15,15.31,0.01,29.89-7.52,43.52c-6.23,11.28-15.43,19.9-25.38,27.78
			c-5.87,4.64-13.04,5.99-20.19,6.8c-12.41,1.41-24.89,2.43-37.38,2.26c-10.75-0.14-21.41-1.39-31.34-6.04
			c-3.08-1.45-7.57-2.82-7.98-5.69c-0.32-2.23,4.78-3.07,7.42-4.58c4.76-2.72,9.41-5.63,15.1-7.94c-2.47-1.01-3.82,0.12-5.16,0.82
			c-4.46,2.36-8.85,4.85-13.28,7.27c-6.86,3.75-14.34,5.4-21.99,6.53c-2.56,0.38-3.38-0.5-3.22-3.01
			c0.35-5.54,0.37-11.11,0.81-16.64c1.48-18.26-1.25-35.96-6.7-53.33C456.92,281.64,456.73,280.13,456.42,278.66z"/>
		<path class="st3" d="M614.18,285.3c-0.1,1.36-0.2,2.73-0.31,4.25c-3.36-0.44-6.33-1.72-9.65-1.89
			c-11.62-0.58-21.6,4.06-31.44,9.22c-7.14,3.74-13.55,8.65-20.21,13.16c-7.16,4.85-13.09,2.79-15.53-5.15
			c-0.62-2.01-0.75-4.18-1.07-6.29c-0.09-0.62-0.07-1.26-0.11-1.89c1.39-4.45,2.51-9,4.23-13.32c5.03-12.62,3.22-24.72-2.25-36.65
			c-6.97-15.2-17.11-28.23-27.92-40.79c-11.38-13.22-23.89-25.37-36.23-37.68c-12.42-12.41-18.19-27.02-15.13-44.67
			c0.85-4.92,5.5-9.15,10.42-9.49c1.74-0.12,1.89,0.67,1.72,1.99c-0.42,3.14,0.65,5.97,1.9,8.76c3.1,6.92,6.76,13.55,10.56,20.09
			c2.85,4.9,7.48,8.17,11.98,11.43c16.59,12.02,34.68,21.64,52.1,32.33c11.86,7.28,23.29,15.11,32.98,25.29
			c-25.32-17.54-52.92-31.33-78.98-48.36c0.75,3.1,3.31,4.07,5.39,5.31c11.69,6.99,23.45,13.88,35.19,20.79
			c10.44,6.15,20.69,12.59,30.9,19.12c22.58,14.45,35.06,35.34,39.78,61.31C613.29,276.52,614.15,280.86,614.18,285.3z"/>
		<path class="st3" d="M404.17,119.49c1.01-2.84,2.1-5.66,3-8.54c0.78-2.5,2.05-2.54,3.81-1.03c2.69,2.31,4.56,4.35,3.96,8.8
			c-1.93,14.4-7.27,27.05-16.14,38.52c-10.86,14.04-22.83,26.9-36.75,37.94c-5.14,4.08-9.98,8.51-14.54,13.23
			c-10.46,10.84-17.03,23.35-16.76,38.83c0.03,1.63-0.21,3.26-0.33,4.9c-0.81,2.09-2.5,3.38-4.16,4.75
			c-5.64,4.65-11.8,8.59-17.64,12.96c-1.62,1.21-3.35,2.23-5.39,2.58c-16.97,1.34-33.99,2.26-50.35,7.66
			c-6.47,2.14-12.92,4.35-19,7.43c-2.63,1.33-3.35,0.55-3.29-2.05c0.16-6.85,1.61-13.51,2.94-20.19
			c2.73-13.66,5.84-27.13,14.86-38.42c9.29-11.62,20.76-20.63,33.36-28.23c12.96-7.81,25.65-16.11,39.42-22.52
			c0.56-0.26,1.18-0.4,1.77-0.59c1.43,2.7-1.28,3.62-2.27,5.29c-0.52,0.36-0.78,0.85-0.73,1.49c-3.32,2.33-7.03,3.93-10.72,5.54
			c-20.8,9.11-39.6,21.19-55.52,37.51c-4.52,4.63-8.39,9.8-10.96,15.8c-2.85,6.67-3.41,13.44-0.19,20.17
			c1.87,3.91,3.8,4.7,7.95,3.79c3.09-0.68,5.48-2.46,7.73-4.55c5.87-5.43,11.04-11.47,15.57-18.03
			c10.86-15.76,25.18-27.8,40.8-38.52c13.86-9.51,28.45-17.86,42.57-26.95c12.23-7.87,24.06-16.23,34.21-26.81
			c6.37-6.64,10.14-14.43,11.56-23.37C403.32,124.42,404.43,122.06,404.17,119.49z"/>
		<path class="st2" d="M153.91,430.38c0.69,0.39,0.54,1.06,0.55,1.66c0.14,20.94,0.28,41.89,0.4,62.83
			c0.01,0.97-0.12,1.94-0.18,2.78c-0.73,0.38-0.86-0.11-1.06-0.36c-4.73-5.97-5.44-6.12-12.06-2.15
			c-9.2,5.51-18.3,11.17-25.98,18.79c-1.98,1.96-3.74,4.1-5.14,6.52c-1.71,2.97-2.28,6.06-1.27,9.44c2.12,7.13,4.19,14.27,7.6,20.92
			c0.8,1.56,1.71,3.1,2.77,4.5c3.36,4.41,5.84,4.63,9.95,0.92c10.39-9.38,20.68-18.88,31.59-27.67c2.5-2.01,4.39-3.32,7,0.06
			c1.55,2.01,4.13,3.23,6.25,4.8c1.76,2.8,1.35,5.92,0.85,8.84c-2.63,15.28-5.71,30.48-9.01,45.63c-0.64,2.94-1.51,5.87-3.19,8.45
			c-4,3.03-8.05,5.99-11.98,9.12c-1.32,1.05-2.02,0.84-3.06-0.31c-2.94-3.28-6.22-6.2-9.66-8.97c-5.07-4.09-10.16-4.41-15.55-0.73
			c-2.37,1.62-4.9,4.52-7.17,4.35c-2.29-0.18-4.31-3.47-6.49-5.35c-1.23-1.07-2.53-2.04-3.8-3.06c-1.29-2.15-1.38-4.64-1.49-6.96
			c-0.24-5.29-1.34-10.53-0.99-15.85c0.27-4.18-0.84-8.32-0.68-12.45c0.41-10.32,0.42-20.69,2.39-30.89
			c1.08-5.59,2.67-11.02,5.36-16.11c7.3-13.84,13.47-28.26,21.61-41.68c4.47-7.37,9.42-14.36,15.77-20.24
			c3.78-3.5,6.48-7.38,5.63-12.91C152.66,432.93,152.96,431.53,153.91,430.38z"/>
		<path class="st5" d="M489.73,545.58c5.16,8.41,8.56,17.46,10.24,27.19c0.3,1.75,0.26,3.48,0.4,5.22c-3.26-1.15-4.94,1.15-6.56,3.2
			c-4.4,5.58-7.74,11.83-10.83,18.18c-1.28,2.63-2.24,2.71-4.21,0.76c-12.46-12.4-24.41-25.25-34.59-39.62
			c-4.93-6.97-10.72-13.07-17.16-18.6c-0.53-0.46-1.02-1.19-2.18-0.78c-0.14,0.96,0.73,1.34,1.31,1.84
			c5.48,4.7,10.51,9.82,14.95,15.53c1.47,1.89,1.34,2.71-0.82,3.88c-10.37,5.63-21.65,8.37-33.12,10.24
			c-21.76,3.54-43.61,5.25-65.63,2.43c-9.75-1.25-19.47-2.65-29.27-5.25c58.5-1.06,108.75-22.28,151.74-61.34
			c1.25,1.74,2.5,3.48,3.74,5.22c-1.34,3.47-4.78,4.87-7.31,7.11c-3.97,3.51-7.76,7.2-11.29,11.11c-4.44,4.93-4.15,8.81,0.42,13.46
			c1.68,1.7,3.35,3.42,5.08,5.07c6.04,5.76,11.69,6.77,19.31,3.42c4.16-1.84,7.96-4.31,11.79-6.74
			C486.93,546.34,487.98,544.97,489.73,545.58z"/>
		<path class="st6" d="M562.65,515.18c6.36,4.07,12.77,8,19.91,10.69c17.1,6.45,32.35,2.56,46.5-7.91c3.43-2.53,6.64-5.37,9.95-8.06
			c-1.2,22.9-5.89,44.7-20.46,63.22c-6.09-4.83-7.22-4.73-14.34-0.26c-3.12,1.96-5.28,5.37-9.22,6.08c-1.09-0.4-1.92-1.17-2.82-1.87
			c-2.78-2.18-5.75-2.38-8.79-0.49c-2.03,1.27-4.14,2.46-5.84,4.18c-1.81,1.83-3.6,2.02-5.66,0.33c-1.74-1.43-3.61-2.26-5.82-0.64
			c-0.87,0.64-2.17,0.53-2.77-0.35c-2-2.92-4.85-5.45-3.85-9.69c3.15-13.31,4.2-26.83,3.85-40.49c-0.1-4.05-0.81-8.01-1.16-12.02
			C562.05,516.91,561.58,515.93,562.65,515.18z"/>
		<path class="st7" d="M404.17,119.49c1.03,5.5-0.74,10.61-2.34,15.7c-3.3,10.48-11.03,17.63-19.02,24.46
			c-18.11,15.48-39.27,26.43-59.09,39.38c-13.43,8.78-26.44,18.06-37.58,29.72c-6.89,7.21-12.2,15.7-18.51,23.39
			c-3.22,3.92-6.76,7.54-10.61,10.79c-3.23,2.73-7.24,4.93-11.43,3.08c-4.66-2.07-5.48-7.01-5.98-11.53
			c-1.05-9.58,3.12-17.48,8.95-24.54c12.46-15.1,28.05-26.36,45.18-35.54c8-4.29,16.27-8.05,24.4-12.09c0.67-0.33,1.2-0.1,1.8,0
			c15.94-3.47,30.55-9.98,43.93-19.28c4.24-2.95,8.5-5.88,12.78-8.76C389.5,145.58,398.12,133.56,404.17,119.49z"/>
		<path class="st8" d="M452.53,271.08c-27.76-2.61-54.63,0.26-79.18,14.52c-5.01,2.91-8.87,3.08-14.15,1.69
			c-13.28-3.47-26.87-2.96-40.48-1.95c-9.02,0.67-17.98,1.54-26.88,3.15c-13.84,2.51-26.81,7.58-39.69,13.01
			c-15.2,6.42-28.69,15.62-42.05,25.1c-4.02,2.85-8.34,5.1-13.28,6.13c-5.82,1.21-9.97-3.01-8.43-8.7c0.78-2.9,2.73-5.07,4.2-7.54
			c1.22,0.16,1.74-0.86,2.46-1.51c26.64-24.18,57.88-37.53,93.77-40.03c12.84-0.89,25.66-1.94,38.53-2.27
			c14.41-0.37,28.35,2.24,42.3,6.21c-1.35,1.76-3.76,1.83-5.19,3.29c0.92,1.53,1.77,0.38,2.3,0.12c4.19-2.04,8.5-3.92,12.41-6.41
			c15.99-10.19,33.77-11.79,52.02-11.23c4.79,0.15,9.57,0.91,14.35,0.83C449.71,265.43,452.17,266.75,452.53,271.08z"/>
		<path class="st5" d="M355.54,562.99c13.16-6.04,26.59-11.49,39.48-18.13c0.75-0.39,1.54-0.71,2.3-1.08
			c0.01-0.01-0.04-0.27-0.12-0.3c-0.23-0.1-0.48-0.15-0.71-0.22c0.44-2.37,2.69-2.32,4.26-3c11.5-4.93,22.71-10.38,32.74-17.98
			c1.83-1.39,3.47-2.9,4.8-4.77c0.7-0.98,1.19-2.31,2.74-2.33c5.65-6.9,10.7-14.26,15.52-21.74c3.7-5.73,4.37-12.44,5.16-19.08
			c0.78-6.53,0.99-13.08,0.64-19.6c-0.84-15.65-2.44-31.22-4.87-46.72c-2.45-15.61-5.79-31.03-8.54-46.57
			c-1.48-8.33,1.24-16.44,3.54-24.43c3.78-13.18,6.4-26.56,6.99-40.3c3.46,12.68,3.94,25.6,3.34,38.63
			c-0.37,7.93-1.31,15.85-0.5,23.82c0.31,3.03,0.85,6.04,2.08,8.8c6.3,14.16,8.6,29.21,9.95,44.45c1.36,15.34,2.26,30.71,1.68,46.13
			c-0.41,10.86-1.66,21.63-3.82,32.28c-1.43,7.03-5.56,12.63-10.42,17.7c-10.15,10.59-22.52,18.19-34.83,25.89
			c-21.01,13.14-42.98,23.87-67.68,28.06C358.03,562.73,356.78,562.84,355.54,562.99z"/>
		<path class="st5" d="M251.63,566.68c9.84,1.61,19.17,3.03,28.62,3.42c4.28,0.18,8.62,0.77,12.85,0.33
			c11.94-1.27,23.23,2.43,34.76,4.16c12,1.8,24.03,3.01,36.15,3.32c0.85,0.02,1.69,0.14,3.01,0.26
			c-4.92,10.28-9.71,20.25-14.45,30.26c-0.66,1.41-1.79,1.61-3.09,1.7c-5.05,0.35-10.09-0.07-15.13-0.33
			c-1.6-0.09-2.44-0.92-3.15-2.27c-1.7-3.25-3.71-6.31-6.39-8.87c-3.91-3.74-6.5-4.05-11.11-1.2c-3.54,2.19-6.8,5.74-10.58,6.38
			c-3.86,0.65-7.01-3.68-10.58-5.63c-4.33-2.37-7.99-1.73-11.51,1.11c-2.6,2.09-4.56,2.49-7.2-0.25c-3.34-3.47-7.62-5.4-12.66-4.4
			c-1.49,0.3-1.67-0.56-1.96-1.6C256.75,584.45,254.27,575.86,251.63,566.68z"/>
		<path class="st6" d="M162.99,596.35c1.39-6.08,2.9-12.13,4.15-18.24c2.45-11.99,4.86-23.99,7.06-36.03
			c0.51-2.8,0.12-5.77,0.14-8.66c7.82,5.09,15.6,10.23,23.47,15.24c5.76,3.67,11.78,6.9,18.3,8.99c2.85,0.91,2.65,2.2,1.54,4.31
			c-4.3,8.17-9.3,15.91-14.64,23.42c-4.37,6.14-7.97,12.56-9.49,20.02c-0.41,2.02-1.07,4.06-3.02,5.03
			c-2.06,1.03-3.92,1.96-4.92-1.8c-1.56-5.92-5.37-10.8-8.98-15.67c-1.39-1.88-3.38-1.58-5.16-0.79
			C168.56,593.45,165.8,594.95,162.99,596.35z"/>
		<path class="st0" d="M109.91,527.1c0.25-4.44,2.4-7.53,4.95-10.39c5.44-6.08,12.07-10.71,18.87-15.09
			c3.61-2.32,7.32-4.47,10.93-6.79c2.17-1.4,4.02-1.21,5.69,0.73c2.13,2.48,4.07,4.89,4.55,8.46c0.89,6.71,3.56,12.87,7.54,18.37
			c1.15,1.59,1.43,2.49-0.43,3.89c-11.72,8.81-22.33,18.93-33.19,28.73c-3.78,3.41-5.17,3.46-8.2-0.62
			c-4.76-6.39-6.74-14.03-9.12-21.47C110.85,530.89,110.37,528.8,109.91,527.1z"/>
		<path class="st7" d="M419.29,106.58c0.13,14.65-2.71,28.95-5.05,43.31c-0.89,5.44-2.32,10.8-3.09,16.25
			c-1.14,8.06-5.67,14.13-11.01,19.74c-11.16,11.71-23.89,21.6-37.08,30.82c-11.18,7.81-21.15,16.56-28.23,28.33
			c-0.43,0.71-1,1.34-1.87,2.48c-0.13-2.43-0.22-4.24-0.31-6.06c0.44-11.31,5.82-20.42,12.89-28.74
			c7.06-8.31,15.67-14.97,23.95-21.97c14.45-12.23,26.53-26.53,37-42.27c7.04-10.58,8.52-22.71,10.55-34.76
			C417.43,111.29,416.78,108.38,419.29,106.58z"/>
		<path class="st0" d="M532.29,392.06c-2.07-0.17-3.91-1-5.64-2.04c-10.12-6.06-19.02-13.68-27.73-21.53
			c-0.91-0.82-2.13-1.75-1.31-3.19c0.81-1.4,2.19-1.35,3.67-1.02c22.97,5.07,45.83,2.46,68.65-1.13c1.81-0.28,2.85,0.06,3.85,1.4
			c1.96,2.63,3.91,5.27,5.96,7.82c1.61,2,0.95,3.43-0.9,4.7c-2.09,1.43-4.37,2.48-6.72,3.42c-12.43,4.98-25.36,8.24-38.37,11.21
			C533.27,391.82,532.78,391.94,532.29,392.06z"/>
		<path class="st8" d="M169.05,343.84c1.19-0.98,0.9-3.29,3.05-3.45c1.02,0.66,0.23,1.34-0.04,1.92c-4.19,8.9-5.21,18.57-6.6,28.09
			c-1.66,11.4-2.87,22.87-3.95,34.34c-1.05,11.17-1.14,22.4-0.77,33.6c0.57,16.7,1.37,33.4,2.3,50.08c0.37,6.62,1.34,13.2,2.02,19.8
			c0.71,6.91,4.67,12.13,9.1,16.99c5.76,6.33,12.54,11.53,19.93,16.98c-1.78-0.15-2.92-0.25-4.07-0.34
			c-6.51-4.3-13.39-8.15-19.46-13c-9.79-7.82-14.65-18.23-14.42-31.01c0.57-31.8-0.39-63.6-1.01-95.39
			c-0.23-11.63-0.33-23.23,2.61-34.59C160.01,359.16,162.94,350.74,169.05,343.84z"/>
		<path class="st8" d="M153.91,430.38c-0.02,0.5-0.14,1.03-0.05,1.51c1.39,7.36-1.85,12.64-7.14,17.44
			c-8.49,7.71-14.16,17.61-19.47,27.59c-6.03,11.35-11.57,22.97-17.34,34.46c-3.03,6.04-4.47,12.58-5.19,19.17
			c-0.92,8.48-1.85,17.06-1.44,25.53c0.5,10.38,0.13,20.85,2,31.16c0.24,1.34,0.01,2.77-0.01,4.15c-6.47-2.99-8.85-7.67-8.71-15.12
			c0.48-24.32,1.22-48.69,9.75-71.68c8.94-24.11,21.97-46.19,38.34-66.14C147.25,435.3,150.06,432.19,153.91,430.38z"/>
		<path class="st9" d="M212.43,299.26c-15.26,0.66-30.71-0.55-45.46,5.01c-4.62,1.74-9.04,3.79-13.25,6.34
			c-2.17,1.31-2.83,3.13-2.92,5.66c-0.62,17.33,1.33,34.36,5.41,51.18c-1.16,6.92-2.54,13.81-2.46,21.8
			c-2.46-2.65-3.48-5.12-4.47-7.6c-3.47-8.67-4.5-17.83-5.03-27.03c-0.8-14.11-1.11-28.23-0.95-42.37c0.03-2.51,0.83-3.77,3.11-4.82
			c14.19-6.53,29.17-9.49,44.65-10.48c8.37-0.54,16.74-1.42,26.3-0.55C215.11,297.71,213.77,298.49,212.43,299.26z"/>
		<path class="st10" d="M548.77,592.72c0.01,0.12-0.01,0.26,0.04,0.37c3.1,7.57,3.11,7.62-4.99,9.02
			c-6.21,1.07-12.47,1.67-18.79,1.25c-1.64-0.11-2.82-0.39-3.4-2.19c-1.05-3.28-3.98-5.45-5.35-8.56
			c4.56-6.84,10.4-12.31,17.73-16.04c3.13-1.59,5.35-1.02,7.05,2.04C543.67,583.28,547.95,587.06,548.77,592.72z"/>
		<path class="st10" d="M481.94,604.44c4.18-8.27,8.04-16.29,13.69-23.31c1.73-2.15,3.39-2.58,5.71-0.74
			c7.07,5.62,13.15,12.13,18.21,19.61c1.61,2.38,1.57,3.63-1.79,4.07c-10.3,1.35-20.62,1.74-30.98,1.18
			C485.3,605.17,483.84,604.77,481.94,604.44z"/>
		<path class="st10" d="M94.93,612.35c-5.54-0.05-9.59,0.19-13.56-0.87c-1.62-0.43-2.8-1.04-1.8-3.15
			c3.08-6.5,5.98-13.09,10.52-18.75c3.35-4.18,4.3-4.25,8.56-1.1c4.57,3.37,9.29,6.53,13.5,10.38c1.77,1.61,2.4,2.84,0.09,4.65
			c-2.27,1.79-4.31,3.99-5.15,6.87c-0.42,1.44-1.39,1.23-2.32,1.29C101,611.95,97.22,612.19,94.93,612.35z"/>
		<path class="st11" d="M548.77,592.72c-2.47-4.2-4.91-8.42-7.41-12.6c-2.5-4.17-4.28-4.68-8.6-2.24
			c-5.88,3.33-10.4,8.23-14.89,13.16c-0.5,0.55-1.06,1.04-1.59,1.57c-0.28-0.28-0.57-0.57-0.85-0.86
			c4.26-5.02,8.77-9.78,14.19-13.57c6.97-4.87,9.52-4.33,13.88,2.73c0.71,1.15,1.45,2.28,2.3,3.62c2.15-2.81,3.59-6.25,6.16-7.8
			c9.2-5.54,8.4-14.87,9.63-23.38c4.25-29.17-3.14-55.97-16.5-81.69c-11.87-22.84-25.08-44.67-43.16-63.23
			c-4.59-4.72-9.57-8.98-15-12.72c-0.75-0.51-1.98-0.71-1.75-2.87c21.81,14.55,35.94,35.24,49.53,56.61
			c6.56-16.11,17.81-27.86,27.85-29.18c-0.37,1.76-2.07,1.69-3.17,2.25c-10.61,5.36-18.15,13.42-22.24,24.66
			c-1.07,2.93-0.92,5.32,0.71,8.13c8.49,14.64,15.82,29.86,21.15,45.96c1.5,4.53,2.44,9.25,3.64,13.89
			c0.78,7.63,1.64,15.25,1.46,22.95c-0.21,9.21-1.13,18.32-2.94,27.35c-1.61,8.04-1.59,8.05,3.39,14.94c3.94-3.22,4.33-3.3,8.1,0.31
			c1.46,1.4,2.27,1.35,3.63-0.01c1.5-1.5,3.21-2.84,4.98-4.03c6.07-4.09,9-3.58,13.72,2.25c-0.23,0.26-0.45,0.51-0.68,0.77
			c-1.17,0.36-1.95-0.38-2.59-1.09c-2.5-2.79-5.21-2.45-8.04-0.67c-3.2,2.01-6.82,3.73-6.16,8.53c-0.21,0.27-0.43,0.53-0.64,0.8
			c-1.57,0.36-2.21-0.86-2.97-1.8c-1.02-1.27-2.07-2.5-3.3-3.56c-0.77-0.67-1.64-1.28-2.69-0.68c-1.17,0.66-1.19,1.76-0.94,2.94
			c0.27,1.26,1.63,2.34,0.65,3.81c-0.23,0.33-0.47,0.66-0.7,0.99c-1.82-0.35-2.08-2.05-2.78-3.32c-1.46-2.65-2.62-5.47-4.18-8.07
			c-1.78-2.96-2.63-3.02-5.23-0.63c-1.4,1.29-2.52,2.81-3.7,4.29c-2.14,2.68-3.92,5.35-1.46,8.79c0.35,0.48,0.39,1.2-0.14,1.74
			C549.22,592.1,548.99,592.41,548.77,592.72z"/>
		<path class="st10" d="M124.13,612.73c-4.43,0.19-8.83-0.07-13.22-0.53c-2.45-0.26-3.19-1.35-1.55-3.42
			c5.01-6.35,11.14-11.24,18.69-14.26c2.18-0.88,4.21-0.27,6.15,0.79c5.06,2.75,9.02,6.82,12.92,10.95
			c0.88,0.93,0.96,1.56-0.11,2.42c-1.87,1.5-3.6,2.89-6.29,2.96C135.19,611.79,129.66,612.34,124.13,612.73z"/>
		<path class="st10" d="M145.72,611.5c8.05-6.57,15.29-12.62,23.72-16.99c4.54-2.35,5.17-2.12,8.01,1.93
			c2.6,3.72,4.98,7.58,6.7,11.8c1.03,2.53,0.67,3.93-2.49,4.22C169.91,613.51,158.24,612.96,145.72,611.5z"/>
		<path class="st10" d="M610.32,594.25c-2.89,1.11-5.06-0.43-6.75-4.11c-1.34-2.91-3.66-5.39-5.62-8c-0.73-0.97-1.38-1.63-0.04-2.7
			c3.83-3.07,7.6-6.2,12.16-8.18c2.03-0.88,3.8-0.93,5.41,0.97c4.25,5,8,10.31,10.92,16.22c1.53,3.1,0.5,4.35-2.64,4.62
			C619.63,593.42,615.49,593.8,610.32,594.25z"/>
		<path class="st10" d="M549.44,591.79c-3.61-4.41-1.7-7.92,1.37-11.76c6.53-8.15,7.36-8.2,12.06,0.91c1.38,2.67,2.7,5.36,4.06,8.04
			c0.75,2.39,1.55,4.76,2.25,7.16c0.58,1.98,0.32,3.51-2.26,3.51c-0.12,0-0.24,0.07-0.37,0.08c-3.86,0.51-7.85,1.79-11.59,0.91
			C550.81,599.66,552.09,594.3,549.44,591.79z"/>
		<path class="st12" d="M577.52,586.48c-2.32-2.26-1.89-4.14,0.76-5.76c0.63-0.39,1.16-0.95,1.75-1.42
			c6.5-5.08,8.24-5.03,14.28,0.41c3.16,4.23,6.74,8.16,9.24,12.87c1.03,1.94,0.99,2.9-1.57,3.06c-4.78,0.3-9.56,0.8-14.33,1.27
			c-2.09,0.2-3.45-0.38-4.43-2.48C581.85,591.47,579.86,588.82,577.52,586.48z"/>
		<path class="st13" d="M295.29,612.08c5.06-4.7,10.29-7.84,15.38-11.14c8.8-5.71,11.44-5.11,17.24,3.7
			c3.89,5.91,3.73,6.23-3.34,6.79C315.09,612.2,305.59,612.17,295.29,612.08z"/>
		<path class="st14" d="M268.1,612.14c5.36-6.25,11.18-10.67,17.89-13.97c1.39-0.68,2.73-0.06,3.99,0.49c3.93,1.7,7.49,4,11.1,6.71
			c-2.57,2.61-5.91,4.08-7.83,7.1c-0.54,0.85-1.64,0.47-2.47,0.49C283.48,613.16,276.19,613.05,268.1,612.14z"/>
		<path class="st13" d="M275.91,602.67c-3.06,2.89-6.56,5.06-8.64,8.64c-0.55,0.95-1.37,0.92-2.27,0.92c-5.87-0.01-11.74,0-18.74,0
			c4.58-5.4,7.41-10.91,12.2-14.83c3.08-2.52,6.65-2,9.99-0.42C271.31,598.31,273.66,600.39,275.91,602.67z"/>
		<path class="st15" d="M320.66,180.81c0.27-1.97,2.37-3.15,2.27-5.29c11.15-5.94,23.01-10.25,34.59-15.19
			c5.76-2.46,11.51-4.95,17.44-7.5C368.9,160.86,339.71,175.84,320.66,180.81z"/>
		<path class="st16" d="M303.23,272.44c9.25-6.52,18.73-12.72,27.19-20.29c0.3,5.66-0.25,11.29-0.47,16.94
			c-0.06,1.63-0.71,2.12-2.28,2.19C319.52,271.61,311.37,272.04,303.23,272.44z"/>
		<path class="st17" d="M567.63,588c-0.46-1.16-0.77-2.42-1.42-3.46c-1.13-1.81-0.39-3.12,0.89-4.3c1.56-1.46,2.78-0.37,3.87,0.75
			c2,2.07,3.95,4.2,5.92,6.3c1.85,2.82,3.7,5.62,5.53,8.44c0.82,1.25,0.69,2.08-1,2.25c-1.12,0.12-2.22,0.42-3.34,0.49
			c-5.74,0.36-6.63-0.27-8.48-5.62C569.02,591.21,568.29,589.61,567.63,588z"/>
		<path class="st18" d="M332.15,249.12c3.72,8.39,8.25,16.19,15.85,21.77c0.58,0.43,0.98,1.11,1.47,1.68
			c-5.4-0.44-10.79-0.95-16.2-1.28c-2.19-0.13-1.96-1.51-1.9-2.89C331.62,261.97,331.89,255.55,332.15,249.12z"/>
		<path class="st19" d="M441.03,515.19c-3.28,5.78-8.6,9.34-14,12.79c-9.65,6.16-20.2,10.52-30.54,15.3
			c-45.16,13.72-91.52,14.09-138.02,11.9c-16.62-0.78-33.09-3.65-49.41-7.15c-3.27-0.71-5.77-2.17-7.93-4.66
			c-4.96-5.73-10.07-11.32-15.05-17.02c-0.93-1.07-2.74-1.98-2.16-3.65c0.68-1.97,2.7-2.59,4.6-2.86c4.66-0.65,9.32-0.34,13.97,0.31
			c16.91,2.37,33.44,6.59,49.78,11.28c10.69,3.08,20.72,2.58,31.13-0.66c28.88-9,57.83-17.8,86.8-26.52
			c9.67-2.91,19.51-5.07,29.63-5.92c9.27-0.79,18.09,0.65,26.56,4.45c3.33,1.5,6.76,2.78,10.09,4.3
			C439.91,508.64,441.9,511.14,441.03,515.19z"/>
		<path class="st20" d="M408.97,375.82c-1.44,1.1-2.49,1.9-3.83,2.92c4.76,3.33,8.92,6.92,12.35,11.29
			c6,7.64,9.58,16.34,10.62,25.92c1.18,10.91,1.87,21.88,2.79,32.82c0.41,4.84-1.11,8.16-5.78,10.69
			c-14.1,7.63-29.24,11.62-44.92,13.92c-12.89,1.89-25.88,2.49-38.91,2.32c-2.08-0.03-3.34-0.33-3.18-2.88
			c1.44-23.12,6.72-44.89,21.96-63.2c3.49-4.2,7.53-7.83,12.07-10.86c11.13-7.42,22.28-14.8,33.45-22.16
			C406.36,376.1,407.04,375.11,408.97,375.82z"/>
		<path class="st21" d="M173.45,439.9c0.33-7.63,1.43-15.05,5.37-21.8c1.51-2.59,2.95-3.35,6-1.66
			c11.91,6.6,22.95,14.23,31.92,24.59c4.17,4.81,7.39,10.19,9.57,16.2c2.93,8.06,6.13,16.02,8.82,24.15c2.2,6.64,0.91,8.53-5.9,9.42
			c-10.78,1.42-21.6,2.29-32.48,1.04c-2.91-0.33-5.68-1.13-8.48-1.86c-9.31-2.45-13.51-8.87-14.69-18.03
			c-1.07-8.3-0.76-16.6-0.61-24.91c2.04,0.51,1.54,2.25,1.64,3.6c0.25,3.19-0.31,6.41,0.43,9.58c0.58,3.48,0.48,7.01,0.99,10.51
			c1.81,12.62,9.26,18.89,22.65,18.36c-8.83-16.84-9.56-34.72-7.66-52.97c0.58-1.68,0.5-3.46,0.71-5.2c0.85-7.08-1.08-10-7.92-12.25
			c-2.18-0.71-3.04,0.55-3.8,2.05c-1.79,3.5-2.7,7.28-3.26,11.16c-0.52,3.33-0.87,6.68-1.28,10.01c-0.16,1.33,0.03,2.8-1.3,3.72
			C172.25,443.91,173.49,441.83,173.45,439.9z"/>
		<path class="st22" d="M300.47,337.86c1.64-0.11,2.49,0.04,3.24,0.59c4.76,3.52,9.89,6.52,14.31,10.51
			c2.79,2.51,3.41,5.08,1.54,8.67c-8.43,16.16-19.44,30.3-32.69,42.73c-2.94,2.76-6.1,5.29-9.96,6.73c-3.14,1.17-5.9,0.85-8.17-1.89
			c-3.06-3.68-6.48-7.06-8.86-11.28c-3.56-6.29-3.69-12.63,0.49-18.53c9.24-13.04,20.09-24.59,33.01-34.08
			C295.7,339.61,298.22,338.13,300.47,337.86z"/>
		<path class="st23" d="M312.03,409.33c-0.51,6.57-3.98,12.36-9.77,16.44c-3.93,2.77-7.15-0.56-10.07-2.78
			c-3.69-2.8-5.92-7.74-4.59-10.04c0.85-1.47,2.35-2.6,3.65-3.79c3.08-2.82,6.31-5.45,10.03-7.38
			C308.22,398.2,312.28,400.8,312.03,409.33z"/>
		<path class="st24" d="M244.91,390.84c-0.15,1.45-0.24,3.73-0.66,5.94c-0.84,4.32-3.56,6.47-7.94,6.52
			c-3.74,0.05-5.95-1.8-6.97-6.08c-1.13-4.7-0.24-9.27,1.33-13.71c0.74-2.1,6.05-3.35,9.96-2.57c2.88,0.58,4.34,2.33,4.29,5.3
			C244.89,387.51,244.91,388.77,244.91,390.84z"/>
		<path class="st25" d="M219.67,420.62c7.01,10.1,13.65,20.47,17.88,32.18C231.89,441.91,225.42,431.49,219.67,420.62z"/>
		<path class="st25" d="M341.97,407.33c-7.56,9.79-9.86,21.69-13.61,33.9C326.99,433.54,336.47,410.37,341.97,407.33z"/>
		<path class="st26" d="M173.45,439.9c0.67,1.79-0.57,3.86,0.8,5.55c2.08,5.07,2.13,10.13-0.03,15.2c-1.35-2.88-0.32-5.93-0.65-8.88
			c-0.18-1.58,0.54-3.27-0.6-4.73C172.79,444.64,172.64,442.23,173.45,439.9z"/>
		<path class="st27" d="M250.33,515.61c-2.27-1.78-4.54-3.55-7.03-5.51C246.47,510.07,248.97,511.86,250.33,515.61z"/>
		<path class="st27" d="M282.04,512.7c1.7-2.64,3.74-4.73,7.21-4.49C286.67,509.42,284.72,511.65,282.04,512.7z"/>
		<path class="st22" d="M591.15,431.9c4.32,0.33,8.09,2.06,11.46,4.58c6.79,5.08,12.84,10.99,18.63,17.16
			c2.83,3.01,3.46,6.24,1.18,9.95c-5.57,9.08-11.82,17.59-19.66,24.86c-1.85,1.71-3.88,3.23-6.21,4.26
			c-2.18,0.97-4.37,1.28-6.56,0.13c-8.39-4.4-16.61-9.07-23.72-15.43c-0.94-0.84-1.82-1.75-2.64-2.7
			c-4.12-4.76-4.45-7.26-1.14-12.54c6.25-9.99,14.07-18.76,21.87-27.52C586.16,432.65,588.57,431.98,591.15,431.9z"/>
		<path class="st28" d="M538.99,468.37c0.11,2.64-0.24,4.37-1.35,5.83c-5.11,6.74-10.22,13.48-16.81,18.88
			c-1.75,1.44-3.69,2.6-5.87,3.35c-2.54,0.88-4.8,0.46-6.64-1.38c-7.35-7.33-14.01-15.22-18.72-24.55
			c-3.07-6.09-2.81-7.82,1.83-12.78c6.38-6.82,13.15-13.23,20.46-19.07c3.04-2.43,6.07-2.84,8.72-0.05
			c7.67,8.08,14.38,16.86,18,27.6C538.93,467.14,538.96,468.18,538.99,468.37z"/>
		<path class="st22" d="M489.73,545.58c-4.87,3.11-9.6,6.48-14.89,8.89c-8.62,3.93-14.05,2.99-20.96-3.56
			c-2.01-1.9-3.91-3.95-6.03-5.73c-3.35-2.83-3.47-6.2-1.98-9.91c1.15-2.85,3.09-5.18,5.34-7.25c5.37-4.94,10.59-10.04,16.52-14.34
			c5.38-2.53,10.86-3.74,16.01,0.23c6.38,4.93,11.84,10.7,12.74,19.23C497.06,538.64,493.24,542.1,489.73,545.58z"/>
		<path class="st29" d="M427.54,525.81c-17.54,11.11-36.25,19.27-56.85,22.72c-34.52,5.79-69.32,7.22-104.22,5.85
			c-18.93-0.74-37.67-3.71-56.24-7.53c-1.11-0.23-2.23-0.47-3.31-0.82c-4.43-1.44-5.58-4.08-3.44-8.12
			c0.82-1.55,1.87-2.98,2.81-4.47c0.9-0.67,1.75-0.29,2.4,0.31c6.65,6.16,14.91,6.4,23.16,6c12.47-0.6,24.93-1.96,37.28-3.6
			c14.36-1.9,28.67-4.35,43.03-6.39c21.75-3.09,43.53-5.97,65.41-7.9c15.23-1.34,30.5-2.07,45.62,1.24
			C424.91,523.47,427.16,523.2,427.54,525.81z"/>
		<path class="st30" d="M427.54,525.81c-3.82-2.63-8.4-2.32-12.63-2.89c-13.41-1.81-26.82-0.73-40.26,0.47
			c-12.38,1.1-24.71,2.53-37.02,4.05c-15.54,1.91-31,4.51-46.53,6.54c-12.55,1.64-25.06,3.63-37.67,4.81
			c-9,0.85-17.95,2.19-27.01,2.18c-4.44,0-8.69-1.05-12.91-2.41c-3-0.96-4.43-3.96-7.22-5.13c0.17-0.33,0.33-0.66,0.53-0.97
			c4.36-6.91,9.71-9.6,18.25-6.74c10.24,3.43,21.02,5.21,31.46,8.1c7.04,1.95,13.8,1.85,20.82-0.03
			c24.23-6.49,47.96-14.63,71.96-21.86c14.6-4.4,29.09-9.12,44.21-11.58c3.76-0.61,6.34-0.27,8.22,3.59
			c1.7,3.48,4.19,6.59,7.01,9.35c1.89,1.86,3.42,2.05,5.28-0.26c2.36-2.94,5.12-5.57,7.65-8.39c1.02-1.14,1.92-1.66,3.55-0.88
			c3.52,1.69,7.23,2.98,10.74,4.68c4.37,2.11,5.01,4.95,2,8.8C435.14,520.84,431.54,523.58,427.54,525.81z"/>
		<path class="st17" d="M400.54,499.62c7.65-0.51,14.38,0.29,21.14,2.83c-3.11,3.43-6.14,6.59-8.96,9.93
			c-1.48,1.76-2.36,0.6-3.27-0.36C406.06,508.48,403.49,504.35,400.54,499.62z"/>
		<path class="st17" d="M191.36,520.9c4.97-0.18,9.27,0.37,13.57,1.04c2.08,0.32,1.13,1.47,0.75,2.42
			c-1.4,3.49-2.86,6.97-4.48,10.92C197.19,530.93,194.56,526.05,191.36,520.9z"/>
		<path class="st31" d="M202.13,537.62c-0.28,0.52-0.54,1.27-1.02,1.81c-0.76,0.86-1.33,0.05-1.84-0.43
			c-4.79-4.61-8.92-9.81-13.29-14.8c-1.01-1.16-0.43-1.89,0.51-2.38c1.71-0.89,3.32-0.98,4.53,0.98c1.7,2.77,3.44,5.53,5.27,8.22
			c1.38,2.04,2.31,4.52,4.94,5.44C201.74,536.63,202.13,536.85,202.13,537.62z"/>
		<path class="st32" d="M355.09,419.83c2.1,9.27,4.34,18.19,7.66,26.78c0.9,2.34,2.06,4.61,3.35,6.76c0.89,1.49,2.12,3.12,4.2,2.57
			c1.8-0.47,2.29-2.26,2.63-3.86c0.94-4.49,0.89-9.03,0.56-13.57c-0.8-10.95-1.97-21.86-4.29-32.6c-0.48-2.23,0.1-3.52,1.91-4.69
			c3.82-2.46,7.67-4.89,11.29-7.62c2.13-1.6,3.19-0.91,4.52,0.89c6.22,8.43,9.54,17.99,11.01,28.24
			c2.16,15.02-0.02,29.65-3.95,44.14c-0.59,2.19-1.77,3.04-3.81,3.43c-15.8,3.01-31.75,4.17-47.81,3.95
			c-1.72-0.02-2.9-0.13-2.75-2.38c1.19-18.22,5.09-35.66,14.54-51.54C354.24,420.16,354.54,420.11,355.09,419.83z"/>
		<path class="st33" d="M415.49,390.09c6.71,7.5,10.11,16.47,11.21,26.3c1.13,10.15,1.69,20.36,2.81,30.51
			c0.65,5.85-1.03,9.62-6.68,12.28c-8.91,4.19-17.97,7.68-28.08,10c6.65-23.31,8.54-46.13-2.05-68.49c-0.93-1.66,0.2-2.69,1.33-3.38
			c5.89-3.6,12.17-6.32,18.97-7.73C413.89,389.4,414.73,389.6,415.49,390.09z"/>
		<path class="st34" d="M369.91,419.7c1.71,9.56,2.55,19.19,2.15,28.91c-0.02,0.38-0.02,0.77-0.13,1.12
			c-0.56,1.7,0.02,4.44-2.25,4.69c-2.02,0.22-2.8-2.24-3.61-3.88c-2.81-5.64-4.8-11.58-6.07-17.76c-0.57-1.16-0.19-2.37,0.42-3.2
			c2.28-3.11,4.43-6.35,7.17-9.1C368.18,419.87,368.91,419.31,369.91,419.7z"/>
		<path class="st35" d="M415.49,390.09c-7.43,1.12-14.14,4.2-20.68,7.7c-1.15,0.62-2.04,1.48-2.11,2.91
			c-1.15-1.78-2.25-3.6-3.44-5.35c-2.96-4.33-2.98-4.32,1.55-7.31c3.45-2.27,6.97-4.46,10.32-6.88c1.75-1.26,3.08-1.46,4.9-0.07
			C409.52,383.76,412.96,386.44,415.49,390.09z"/>
		<path class="st36" d="M369.91,419.7c-4.08,3.77-7.7,7.89-9.91,13.08c-1.74-4.46-2.41-9.2-3.6-13.81c-0.3-1.15-0.17-2.15,0.59-3.18
			c2.97-4.05,6.14-7.9,10.37-11.46C368.6,409.65,369.6,414.61,369.91,419.7z"/>
		<path class="st37" d="M221.17,450.94c0.48,0.25,0.82,0.31,0.89,0.47c4.72,10.6,8.99,21.37,12.22,32.52
			c0.89,3.08-0.37,4.76-3.58,5.23c-8.51,1.24-17.05,1.88-25.65,1.82c-1.87-0.02-2.65-1.03-3.5-2.34
			c-4.71-7.26-6.93-15.38-8.06-23.81c-1.69-12.6-0.9-25.16,1.27-37.68c0.38-2.2,0.96-2.71,2.74-1.24c0.29,0.24,0.6,0.48,0.93,0.65
			c6.45,3.36,9.26,8.38,9.48,15.94c0.24,8.39,2.29,16.71,4.79,24.8c0.37,1.2,0.79,2.4,1.33,3.53c0.42,0.89,0.88,1.95,2.12,1.86
			c1.16-0.08,1.69-1.05,2.09-1.97c1.6-3.63,2.07-7.52,2.41-11.42C220.91,456.58,221,453.82,221.17,450.94z"/>
		<path class="st33" d="M174.21,460.65c0.01-5.07,0.02-10.13,0.03-15.2c0.46-4.8,0.41-9.67,1.72-14.36c3.37-0.9,6.43,0.56,9.6,1.26
			c1.95,0.43,3.57,1.82,5.73,1.73c1.06-0.04,0.88,0.95,0.56,1.7c-0.47,10.31-1.16,20.6,0.52,30.9c1.38,8.52,3.99,16.54,8.79,24.15
			c-6.73-0.27-12.67-1.72-18.21-4.61c-3.97-2.07-5.93-5.67-7.02-9.84C174.59,471.22,174.48,465.93,174.21,460.65z"/>
		<path class="st38" d="M208.9,435.02c4.21,3.79,8.2,7.48,10.55,12.36c1.57,3.24-1.01,19.72-2.99,23.66
			C213.17,468.01,208.13,444.42,208.9,435.02z"/>
		<path class="st36" d="M191.86,435.78c-4.05-1.89-8.29-3.17-12.69-3.91c-1.1-0.18-2.22-0.16-3.2-0.78
			c0.44-4.55,1.83-8.77,4.3-12.65c0.98-1.54,1.87-1.79,3.63-0.92C194.27,422.65,194.85,423.84,191.86,435.78z"/>
		<path class="st0" d="M258.58,385.07c0.29-3.77,1.4-6.94,3.48-9.75c8.9-12.04,19-22.93,30.94-32.03c1.4-1.07,2.96-1.92,4.49-2.81
			c2.67-1.56,5.1-1.47,7.63,0.62c3.79,3.12,8.2,5.45,11.85,8.79c2.07,1.89,2.95,3.87,1.49,6.68c-9.15,17.56-21,32.96-36.16,45.75
			c-1.24,1.05-2.67,1.92-4.12,2.67c-4.09,2.1-6.18,1.68-9.28-1.77c-4.21-4.7-8.64-9.27-9.93-15.81
			C258.8,386.54,258.68,385.67,258.58,385.07z"/>
		<path class="st0" d="M310.7,408.88c-0.56,6.12-3.8,11.45-9.03,15.68c-0.69,0.56-1.49,0.8-2.46,0.68
			c-3.74-0.44-9.48-5.54-10.23-9.25c-0.26-1.25-0.3-2.48,0.78-3.5c4.04-3.82,8.15-7.58,13.25-9.93
			C308.05,400.23,310.6,402.17,310.7,408.88z"/>
		<path class="st0" d="M243.35,390.1c-0.14,2.66-0.04,4.9-0.65,7.14c-0.94,3.43-3.51,4.58-6.51,4.7c-3.1,0.12-4.84-2.09-5.42-4.87
			c-0.86-4.13-0.68-8.42,1.06-12.22c1.74-3.82,5.68-2.38,8.75-2.25c2.63,0.1,2.88,2.35,2.78,4.51
			C243.31,388.24,243.35,389.37,243.35,390.1z"/>
		<path class="st0" d="M591,433.4c4.34,0.19,8.03,2.12,11.37,4.65c6.34,4.83,12.03,10.4,17.54,16.14c2.68,2.79,3.21,5.76,1.02,9.23
			c-5.48,8.67-11.46,16.94-19.04,23.93c-1.74,1.61-3.83,2.89-5.9,4.07c-1.55,0.89-3.3,1.2-5.07,0.28
			c-8.85-4.63-17.61-9.41-24.84-16.45c-5.38-5.25-5.65-7.59-1.5-13.81c6.04-9.05,13.14-17.27,20.4-25.34
			C586.59,434.32,588.52,433.25,591,433.4z"/>
		<path class="st0" d="M537.57,469.28c0.04,1.58-0.32,3.05-1.25,4.3c-4.76,6.36-9.66,12.62-15.7,17.85
			c-1.72,1.48-3.61,2.72-5.77,3.55c-2.1,0.81-4.03,0.59-5.6-0.98c-7.58-7.63-14.45-15.8-19.09-25.63c-1.59-3.38-1.11-6.03,1.53-8.85
			c6.65-7.1,13.65-13.76,21.27-19.81c2.64-2.09,5.09-1.9,7.02,0.22c7.14,7.85,13.63,16.18,17.18,26.39
			C537.49,467.23,537.45,468.28,537.57,469.28z"/>
		<path class="st39" d="M488.9,543.98c-5.94,4.5-12.02,8.72-19.35,10.77c-5.01,1.4-9.22-0.01-12.94-3.28
			c-2.75-2.41-5.32-5.03-8.03-7.48c-2.27-2.06-2.56-4.59-1.7-7.27c0.45-1.42,1.14-2.9,2.13-3.97c6.34-6.84,12.73-13.64,21.01-18.24
			c6.72,8.24,12.47,17.15,17.86,26.3C488.46,541.78,489.05,542.77,488.9,543.98z"/>
		<path class="st0" d="M488.9,543.98c-5.94-9.24-11.32-18.87-18.42-27.34c-0.42-0.49-0.32-1.42-0.46-2.14
			c4.85-2.73,9.44-2.04,13.77,1.16c3.49,2.58,6.2,5.92,8.49,9.56C496.96,532.68,495.88,538.38,488.9,543.98z"/>
	</g>
</g>
</svg>
