<svg xmlns="http://www.w3.org/2000/svg" viewBox="0 0 705.66 632.34"><defs><style>.cls-1{fill:#342a0e;}.cls-2{fill:#0d0d0b;}.cls-3{fill:#3c2f0e;}.cls-4{fill:#f8d61f;}.cls-5{fill:#de9626;}.cls-6{fill:#802218;}.cls-7{fill:#f0f80e;}.cls-8{fill:#ee3324;}.cls-9{fill:#dd9726;}.cls-10{fill:#eff70e;}.cls-11{fill:#ed3324;}.cls-12{fill:#dd9626;}.cls-13{fill:#371a0f;}.cls-14{fill:#e09a25;}.cls-15{fill:#0c0a07;}.cls-16{fill:#0d0b07;}.cls-17{fill:#2c2411;}.cls-18{fill:#ea5560;}.cls-19{fill:#a6202b;}.cls-20{fill:#eff2f0;}.cls-21{fill:#edf0ef;}</style></defs><title>Asset 3@</title><g id="Layer_2" data-name="Layer 2"><g id="Layer_1-2" data-name="Layer 1"><path class="cls-1" d="M572.53,246.22c-15.08,2.83-30.36,3.41-45.63,3.94-2.29.08-4.63-.78-7,.44-1.71,2.16,0,4.29.32,6.4a102.56,102.56,0,0,1-2.79,46.42c-5.4,18-8.05,36.31-4.08,55.59a182.3,182.3,0,0,1,48.36-4.52,8.72,8.72,0,0,0,5.62-1.65c2.75-2,5-1.52,6.09,1.93.52,1.57,1,3,2.59,4,3.2,2,10.67-1.2,8.67,7.35-1,4.19,3.73,8.69-.28,13-.34.37-.06,1.28-.15,1.92-1.06,7.21,1.14,16.32-10.73,17-1.8.1-3.53,2.86-5.15,4.53a230.62,230.62,0,0,1-95.48,59.89c-5.77,1.89-8.95,5.11-9.79,11-.66,4.61-1.66,9.18-2.05,13.81a28.15,28.15,0,0,0,7.4,22.06c3.8,4.2,7.59,8.42,11.16,12.81,19.21,23.57,21,45.69,5.94,71.92-.82,1.42-1.7,2.81-2.6,4.27,2,3.32,5.46,3.87,8.3,5.23a179.68,179.68,0,0,1,21.83,12.05,14.32,14.32,0,0,1,6.63,9.55c.54,2.8-.46,4.75-3.23,5.12-5.89.78-11.66,3.11-17.76,1.53-20.38-5.28-41.41-6.26-62.13-9.34-4.6-.68-9.19-1.47-13.8-2.14-3.1-.45-6.19-1.37-7.42-4.36-1.76-4.26-5.45-4.66-9-5.13-19.49-2.58-38.74-6.19-57.33-12.72-8.39-2.94-16.54-.13-24.68,1-16.8,2.27-33.44,5.91-50.53,5.68a14.27,14.27,0,0,0-6.75,1.36c-25.52,12.61-52.57,20.28-80.62,24.73a22.47,22.47,0,0,1-10.86-.62c-5.56-1.9-7.43-7.07-4.15-12a35.37,35.37,0,0,1,6.9-7.15,188.48,188.48,0,0,1,26.16-18.31c2.51-1.47,5.62-2.2,7.44-5.41-18.85-18.84-16.9-40.3-7.17-62.55a80.42,80.42,0,0,1,10.48-18.11c6.11-7.67,8-16.5,9-27.54l-43.65,19.94c2-24.52,8.09-47.13,10.24-71.91l-61.24,34.42c-3-1.39-2-3.83-1.7-6.07,3.55-31.1,9.31-61.82,15.43-92.49.58-2.9,1-5.84,1.56-9.65-4.68.54-7.86,2.81-11.09,4.64-30.27,17.13-58.45,37.12-83.45,61.43L46.85,423c-2.25,2.19-4.23,1.55-5.75-.8a92.22,92.22,0,0,1-6.2-10.23A468.49,468.49,0,0,1,1.51,317.05c-.38-1.62-.56-3.28-1-4.89-1.53-5.68.38-9.18,5.74-12a560.77,560.77,0,0,1,57-26.51c45.24-17.75,90.89-34.23,138.55-44.38,10.66-2.27,21.33-4.67,32.19-4.69,1.41,3.9-1,6.26-2.2,8.85a340.85,340.85,0,0,0-13.92,35.25c-.6,1.73-2.4,3.76-.24,5.31a3.4,3.4,0,0,0,5.12-1.24c2.48-4.61,6.33-3.59,9.42-1.79,4.29,2.49,7.26,2.83,11.29-.89,4.61-4.27,7.08-3.18,8.4,3.49a15.3,15.3,0,0,0,7.86,10.89,99.94,99.94,0,0,1,25.71,20.47c8.44-17.19,16.4-33.47,21-51.12,3.55-13.54,6.65-27.22,14.94-38.89,2.23-3.14,1.42-6.39.88-9.62-5.1-30.88-.13-60.95,7.26-90.82.07-.3.41-.52.62-.78a4.55,4.55,0,0,1,3.28,2.91c.7,3.36.07,6.67-.76,9.87-5.78,22.17-5.77,44.78-5.41,67.44.1,6.76,2,13.12,3.34,19.63.91,4.59,2.33,9.44-5,10.34-3.43.43-4.19,3.93-5.35,6.67a145.83,145.83,0,0,0-7.82,23.67c-3.33,14-8.05,27.46-16.4,40.58,8.6-1,16.72-2.82,24,1.65,7.6,4.63,11.71,11.71,12.9,20.38,3,21.79-4.81,32.53-28.42,38.57,2.72,6.89,7.1,12.72,10.74,18.92,1.51,2.58,3.46,4.92,4.69,7.65s3.42,6.09.08,8c-3.07,1.75-5.23-1.68-7.24-3.81a9.69,9.69,0,0,1-1.19-1.59c-13.22-21.62-26.63-43.22-29.49-69.19-.82-7.47-5.08-11.8-10.62-15.94-8.41-6.28-19.1-9.92-24.14-20.25-1.63-3.35-3.67-1.8-5.64-.39-2.43,1.74-4.7,3.72-7.27,5.27-2.25,1.37-4.74,3.42-7.34,2-3.14-1.7-.3-4.82-.77-7.3-4.5,1.27-6.72,5.34-10,8-4.54,3.67-6.72,7.48-2.45,13.4,2.65,3.67,2.06,9,2.71,13.58a231.18,231.18,0,0,0,10.12,41.66c6.41,24.57,17.23,47.15,31.44,68.07,4.26,6.27,7.71,11.36.2,17.59-2.14,1.76-2.76,5.19-3.57,8.07C245.33,470.64,233,490.43,220,509.83c-6.52,9.74-12.08,19.89-15,31.39s-2.41,22.43,3.52,32.88c3.21,6,8.79,9.78,13.71,14.19,1.46,1.3,2.82,2.94,2.23,5.16-.4,1.51-1.8,1.86-3.15,1.79-14.89-.86-24.65,9.5-35.89,16.38a2.19,2.19,0,0,0-.29.22c.44-.31.89-.6,1.39-.91,3.67-2.29,7.82-8.88,11.32-4,3,4.18-4.55,5.95-7.76,8.28-2.39,1.75-4.91,3.4-6.66,4.56a117.18,117.18,0,0,1,16.85-10c2.7-1.38,6.46-2.23,7.94,1.12,1.24,2.8-1.87,4.64-4.26,5.85a125.34,125.34,0,0,0-13.68,7.6c22.45-4,43.32-10.67,63.84-18-4.4-1.21-9.35-1.61-13.53-4.33-1.16-.75-2.24-1.76-2-3.15s1.73-1.93,3-2.26a12.1,12.1,0,0,1,6,.11c23.36,6,46.33.52,69.36-2.48,19.43-2.54,38.71-7.2,58.48-2.87,1.61.36,3.33.25,4.93.73,1.88.56,4.23,1.1,4,3.59-.2,2.23-2.16,3.2-4.32,3.4-5.68.53-11.21-1.12-15.91-1.12,17,1.51,34.38,7,52.39,8.55,5,.42,9.95.74,14.91,1.19,2.58.23,6.43.24,6.54,3.2.15,3.87-4,3.41-6.79,3.89a18.2,18.2,0,0,1-4.78,0c24.19,4.11,48.73,5.93,72.48,10.87-2.65-2.83-11.16-2.87-8.36-8.34,2.57-5,7.83,1.09,11.91,2.15,1.33.35,2.36,1.7,3.65,2-3.68-2.47-8-4-12.11-6.1A6.38,6.38,0,0,1,491,613c-2.62-4.74-4.55-6.13-8.09-6a10.85,10.85,0,0,0-4.71,1.48c-2.24,1.2-4.7,4.09-7.05,1.59s-.18-5.64,1.45-8.09c2-3,4.45-5.81,6.46-8.9,14.19-21.74,13.7-43.45-1.56-64-3.56-4.81-7.33-9.47-11.26-14-15-17.24-13.67-50.37,2.72-67.43,3.93,2.46,3.93,2.46,3.53,9.51,17.55-6.76,34.64-13.4,49.56-24.59,19.64-10.52,34.65-26.69,50.37-41.87,6-5.8,7-14.05,5.61-23.13-3.54,2.94-6.74,3.62-8.29-1.32-1.66-5.28-5.53-5.77-10.25-5.5-11.25.67-22.55-.65-33.79,1.66-6.58,1.35-11.77,3.52-14.82,10.12-1.86,4-4.32,8.51-10.22,7.8-3.15-4.4.83-7.37,2.25-10.79,2.56-6.18,6.45-15,.37-18-6.89-3.4-10.11,6.07-13.5,11.44-1.58,2.51-2.32,5.49-3.1,8.37-1,3.5-2.55,7.43.35,10.4,3.38,3.46,5.79-1.17,8.68-2,2-.59,3.87-.94,5.3,1.09,0,4.13-2.8,6.66-5.41,9.17-8.21,7.91-17.88,13.81-27.75,19.33-2.68,1.5-6.64,4-8.78.25-1.78-3.12,2.16-5,4.4-6.81a16,16,0,0,1,2.5-1.63c8.84-4.86,14.13-9.33,11.63-22.37-2.89-15.11,6.85-28.17,19.95-36.42,5.9-3.71,8.25-7.51,8.52-14.16.36-8.65,2.65-17.08,5.08-25.39,5.44-18.6,7.21-37.07-.26-55.71-3.08-7.71-2.16-8.57,4.86-8.76,3.07,4.47,7.82,4.77,12.5,4.75,11.32,0,22.66.79,33.94-.88,3.31-.49,6.64-.84,9.73,1A2.1,2.1,0,0,1,572.53,246.22Z"/><path class="cls-2" d="M572.53,246.22a4.7,4.7,0,0,0,.07-1.54c5.51-5.62,13.89-6.62,19.45-12.16,10.79-7.22,21.41-14.67,29.49-25,2-2.5,5.3-5.26,3.49-8.69-1.54-2.91-5.4-1.67-8.29-1.82-9.27-.51-18.6,1-27.83-1-1.4-.71-2.57-1.58-2.18-3.43,31-2.09,61.85-2.67,92.1,5.87,9.11,2.57,18.54,4.71,26.83,11.18-4.45,5.48-10.31,7.9-16,10.4-14.32,6.35-29.39,10.47-44.57,14.16-19.71,4.79-39.63,8.51-59.69,11.42C581.19,246.2,576.83,246,572.53,246.22Z"/><path class="cls-2" d="M332.25,116.21l-2.12-2.53c4.8-24.3,13.68-47.21,23.72-69.72,5.15-11.55,10.51-23,17.91-33.37,2.52-3.54,5.16-7,8.89-9.36S387-.17,388.45,4a27.83,27.83,0,0,1,1.73,8.76,356.35,356.35,0,0,1-5.72,69.54,6.13,6.13,0,0,1-2.4,1.41c-18.25,1.5-29.37,14.68-41.87,25.6C337.55,111.59,336.3,115.5,332.25,116.21Z"/><path class="cls-3" d="M382.4,82.35l2.06-.09c-.81,16.94-4,33.58-6.9,50.22-3.08,17.57-6.92,35-10.45,52.61,3.76,2,7.12-.62,10.64-.79,38.94-1.88,76.29,3.2,109.62,25.29,4.09,2.71,7,1.74,10.93.34,28.6-10.14,57.93-16.77,88.43-17.38l2.09,2c-1.92,5.56-6.87,4.17-10.88,4.55a391.19,391.19,0,0,0-64.81,11.73c-5.45,1.47-11.07,3-13.66,9a4.2,4.2,0,0,1-2.75,1.58c-3.65.06-6.07-2.37-8.76-4.29-22.25-15.92-47.35-23.83-74.39-25.83-11.19-.82-22.32-3.41-33.73-.74-5.63,1.32-11.07,1.93-14.53,7.33-1.24,1.94-3.19,3.93-5.78,2.7-3.15-1.49-2.31-4.53-1.57-7,3.32-11.16,6-22.45,8.33-33.88,4.39-21.85,7.9-43.84,11.25-65.86C378.19,89.56,378.17,85.06,382.4,82.35Z"/><path class="cls-4" d="M382.4,82.35c-4,23.54-7.85,47.09-11.9,70.61-2.48,14.38-5.43,28.67-10.32,42.47-.49,1.38-1.8,2.92,0,4.35.59-.23,1.61-.35,1.69-.68,2.06-8.74,8.38-10.77,16.37-11.3,42.66-2.79,82.59,4.27,117.16,31.48a24,24,0,0,0,2.52,1.56c1,.15,1.41-.24,1.17-1.25-3-3.18-2.93-5.33,1.61-7.2,11.7-4.82,23.93-7.56,36.28-9.92,15.6-3,31.19-6,47.14-6.51,1.58-.05,3.12-.92,4.68-1.41h43.41c-8.69,19.11-22.88,30.45-39,40-6,2.4-12,2.52-18.45,1.85-15.52-1.63-30.9,1.33-46.32,2.54-4.87.38-9.76,2.31-14.54-.41-4.63-.41-2.89,2.09-1.87,4.18,5.82,12,7.2,24.76,6.3,37.91-.52,7.68-2.36,15.11-4.34,22.48-2.94,10.94-5.72,21.9-5.86,33.29-.05,4-1.44,5-5.45,6.21-18,5.36-28.11,32.63-18.28,48.76-7.66,6.84-16.94,11.49-25.38,17.71,10-.92,32.75-16.77,41.57-28.81l-.12.12c5.34-2.31,7.81-7.2,9.58-12.08,1.48-4.07,3.93-5.61,7.73-6.67a107.51,107.51,0,0,1,35.6-3.49c5.33.31,10.62.6,16-2.2,1.22,4.47,2.34,8.55,3.47,12.73,3.38-.84,1.36-3.43,2.28-4.82,1.11-1.66,2.77-1.62,4.43-1.18,1,.26,2.15.87,1.52,2-2.13,3.92,1.95,7,1.39,10.35-.91,5.47-5.38,10.08-4.2,16.22.08.41-1.29,1.42-2.11,1.61-5.31,1.26-8.16,5.54-11.58,9.12-12.23,12.85-25.57,24.29-41.4,32.57-17.81,3.57-34.87,10.11-52.73,13.52-10.48,14.82-13.65,31.46-11.89,49.19.57,5.85,4.16,10.35,8.05,14.6,7,7.62,13.95,15.28,18.72,24.57,10.4,20.23,9.35,39.63-4.47,58a3.66,3.66,0,0,1-4.3-1.66c-7.49-10.85-18.91-15.65-30.75-19.13-27.76-8.15-56.23-11.86-84.65-5.15A200.54,200.54,0,0,1,253,564.57a115,115,0,0,0-27.39-5.23c-7.93-.49-13.89,1.21-14.4,10.76-.13,2.44-.45,5.52-4.1,5.88-7.07-10.29-7.89-21.5-5.21-33.37A75.84,75.84,0,0,1,212.58,517a655.28,655.28,0,0,0,40.28-68.73c16.26-19,16.39-19.21,4.15-41.07a316.67,316.67,0,0,0-25.5-39c-2.88-3.73-4.42-8.09-7-11.91-6.49-15.84-9.16-32.61-11.61-49.37-.77-5.24-1.14-9.92-9.41-10.84,4.75-2.57,8.75-3.55,7.34-8.46-.77-2.66,1.14-3.34,3.51-3.22,2.22.12,4.09-.36,3.2-3.31-.45-1.5-.29-2.61,1.5-2.84,2.94-.38,5.83-.34,7.68-3.59,1.38-2.43,3.66-.61,5,.41,1.88,1.39.38,2.77-.67,4.1-1.57,2-4.4,3.08-4.44,7.53l21.68-16c-.21,10.22,6,14.91,13.1,19A100.1,100.1,0,0,1,280,303.17c3.05,2.86,4.91,5.88,4.86,10.38-.1,9.44,2.5,18.44,6.07,27.09,6.77,16.36,15.54,31.66,25.26,46.42a5,5,0,0,0,3.75,2.59c-1.34-7.62-7-12.55-10.15-18.73-3.31-6.49-7.59-12.49-10.42-20.13,13.5,1.89,24.67-1.3,29.53-14.7,4.3-11.82,4.07-23.87-5.29-33.62-9.18-9.56-20.06-8.42-30.86-2.62-1.06-2.29-.12-3.77.67-5.06,8.69-14.06,13.28-29.67,17.54-45.44a166,166,0,0,1,9.84-27.18c2.56-5.46,4.76-3.1,9.29,1.62-9.91-37.79-6.17-72.77,2.16-107.58a107.24,107.24,0,0,1,35.33-31.67C372,82.05,376.84,78.71,382.4,82.35Z"/><path class="cls-4" d="M38.37,410.35c-8.14-13.08-12.73-27.68-17.88-42C14,350.21,7.82,332,4.3,312.93c-1-5.29.52-7.75,4.89-10.18,22.14-12.29,45.38-22.12,69-31.13,42.24-16.12,85.14-30.17,129.3-40.1,7.06-1.58,14.14-3.69,21.68-3.09.79,3-1,5.16-2,7.41-5.55,12.45-10.87,25-14.54,38.14-1.38,4.9-7.05,8.27-4.89,14.39.42,1.19-1,2.44-2.27,3-5,2.19-8.86,4.26-1.73,9,2.18,1.45.62,4.39,0,6.53-3.82,13.75-7.75,27.47-11.65,41.21-5.37-1.58-3.88-6.22-4.15-9.85-1-14,1.88-27.86,2.53-41.82.4-8.46-.71-9.68-8.54-5.66a340.23,340.23,0,0,0-53.65,34.66c-30.08,23.46-56,51.13-81.37,79.46C44.66,407.43,43.14,411.57,38.37,410.35Z"/><path class="cls-5" d="M38.37,410.35c13.41-14.23,26.15-29.05,39.82-43.07,24.47-25.08,50.62-48,80.53-66.32,9-5.54,17.78-11.74,28-15,7-2.24,8.45-1,7.42,6.07-2.36,16.08-3.93,32.22-3.61,48.5.05,2.61-.56,5.39,1.53,7.59-3.49,16.37-8.41,32.49-9.54,49.61,5,.31,8.37-1.93,11.81-3.62,9.21-4.53,18.27-9.35,27.41-14,5.57-2.84,5.73-2.48,8.82,3.17,5.38,9.84,5.49,19.31.12,29.28-5,9.31-7.13,19.94-12.47,29.16-2.47,7.18-9.55,3.46-14.06,5.86-.34.18-1.36-1.95-2-1.25-9.39,10.54-6.4-2.72-9.21-4.74-.09-5.93,2.95-11.63,1.1-19.13C173,433.26,152.92,445,131,457.22c4-37.71,11.93-73,18.25-108.47-4.6-1.06-7,1.15-9.53,2.5-32,16.8-60.91,37.87-87.51,62.22a58.39,58.39,0,0,0-4.29,4.18c-2.8,3.18-5,2.58-6.8-.94C40.05,414.65,39.27,412.47,38.37,410.35Z"/><path class="cls-5" d="M207.08,576c2.35-2.56,1.23-5.7,1.4-8.59.49-8.76,2.66-10.74,11.62-11.24,8.41-.46,16.48,1.34,24.54,3.18,13.86,3.17,27.46,7.29,41.48,9.91a149,149,0,0,0,52.22.19c17.9-3,35.52-8.63,54-7.09,23,1.92,46.28,2.63,67.68,13.43,8.82,4.45,16.55,9.51,20.88,18.68-1.73,5.5-7,8.7-9.24,13.62.65,1.17,1.46,1.5,1.91.88,5-6.91,11-6,17.36-2.25,2.58,1.51,5.25,2.86,8,4.33-2.58,2.59-4.83-1.85-8.5.87,8.22,4.58,17.08,7.17,25.18,14.63-9.63-2-15.71-8.42-23.93-8.69,4.39,4.78,11.09,5.47,15.89,9.38-1,2.53-2.91,2.29-5,1.86-24.78-5.06-49.92-7.76-75-11.12-3.51-.48-7.11-.8-9.74-4.92,7.17-1.28,13.85,1.38,20-1.93-27.64-1-54.45-6.46-80.95-14.14,8.6-1.91,17.28.43,25.88-1.08-12.14-2.74-24.34-4.6-36.78-2.92-20.1,2.7-40.15,5.76-60.27,8.24a108.47,108.47,0,0,1-39.63-2.42c-1.89-.46-3.78-1.43-6.46.17,6.61,4.36,14.07,4.31,21.14,6.57-24.63,11.19-50.29,18.34-78.2,22.92,3.5-5.62,8.2-7.54,12.31-10,3.9-2.32,8.15-4,11.89-6.76-12,.62-20.47,9-30.62,14,5.11-8.21,14.1-11.81,22.38-18.21-6.56-.58-9.33,4.68-14,4.74l.13.15c7.71-10,19-14.87,29.66-20.7,3.53-1.94,5.67,3.14,9.9,1.61C218.75,586.85,210.61,583.57,207.08,576Z"/><path class="cls-6" d="M193,441.56c3.95.85,2.75,4.75,4.2,7.16,3.41-1.28,2.54-5.9,5.62-7.3,2.56.91.78,3.73,2.56,5,2.86-1.25,2.6-5,5.67-7,2.05,1.24.63,4.07,2,5.68,2.84.69,3.29-2.57,5.24-3.35.59,4.74-4.12,8.27-3.26,13.93,11.36-1.23,20.94-8,33.62-9.66-4.19,16-13.11,27.79-19.8,39.95-1.48.54-1.91.2-1.9-.69,0-3.18,3.61-6.77.56-9.31s-6,1.12-8.84,2.39c-10.85,4.89-21.15,11-33.78,15.07C186.66,475.44,190.14,458.54,193,441.56Z"/><path class="cls-7" d="M186.38,393.81c4.2-31.49,13.3-59.52,20.79-88,2.57.77,2.48,3,2.69,4.61,2.49,19.15,7.67,37.6,13.81,55.85,2.92,8.7,3,7.56-4.32,11.21C209,382.61,198.66,387.72,186.38,393.81Z"/><path class="cls-8" d="M288.35,316c0-7.18,4.72-12.94,12-16.49,6.74-3.28,13-.86,18.43,3.53,11.17,9,12.83,27.48,3.57,38.51a19.91,19.91,0,0,1-20.75,6.15c-2.9-.93-5.62-2.41-6.79-5.39C291.69,334.27,288.47,326.26,288.35,316Z"/><path class="cls-9" d="M224.5,356.26c11.52,11.17,19.45,25,28,38.31a257.64,257.64,0,0,1,12.9,23.53c5.41,10.76,4.56,15.52-3.88,23.95-2.51,2.52-4.51,5.92-8.66,6.22,1-3.13,2.62-6.21,3-9.41.44-4.22,3.7-3.4,6.63-4.42-16.56-21.74-28.11-45.79-36.51-71.44C225.22,360.78,224.38,358.64,224.5,356.26Z"/><path class="cls-10" d="M218.56,451.24c6.86-17.08,12.86-32,19.39-48.29,5.65,9.08,10.9,16.9,15.49,25.09,2.8,5-.72,12.15-7.29,14C237.58,444.42,229.24,447.44,218.56,451.24Z"/><path class="cls-5" d="M514,238.52c10.24-2.51,20.53-4.78,31.16-4.26,8.62.43,17-3.33,25.55-1.8a165,165,0,0,0,22.6,2.08c-5.75,5.7-12.83,8.69-20.66,10.14-12.46.58-24.91,1.23-37.37,1.72-3.94.16-7.91-.28-11.85-.1C517.76,246.55,514.74,244,514,238.52Z"/><path class="cls-11" d="M500.64,380.25c-3.92-.13-5.35,3.44-7.87,5.37-4.6,3.54-7.74,2.68-9.46-2.82a11,11,0,0,1-.49-3.9c.79-12.94,5.93-23.64,16.78-31.06,5.07-3.47,8-2.09,8.89,3.93,1,7,.34,13.75-3.4,20.12-1.61,2.74-4.87,4.69-4.57,8.48Z"/><path class="cls-12" d="M470.45,448.07c16.66-8.09,33.79-14.34,52.73-13.52-15.67,12-33.72,19.12-52.16,25.45-.81.28-1.88-.15-2.67-.24C466.88,455.32,473.52,452.64,470.45,448.07Z"/><path class="cls-5" d="M184.49,612.2c-.81,2.16-2.34,3.21-5,3.26,1.28-2.24,2.65-3.57,5.09-3.11Z"/><path class="cls-13" d="M368.76,314.62C381.6,326,394.9,324.21,408,322c7.57-1.28,13.47.22,19.13,5.5,7.19,6.71,15.6,11.3,26,11.08,1.83,0,4.13-.28,5,2.21-.42,1.8-2,1.74-3,1.45-5.43-1.5-7.74,1.69-10,5.84q-5.67,10.53-12,20.74a110,110,0,0,1-20.24,24.59,53.09,53.09,0,0,1-7.9,6.06c-10.4,6.25-17.29,4.05-22.57-6.84-3.4-7-4.85-14.57-5.56-22.14-1.17-12.6-1.92-25.31-.14-37.89.74-5.23.63-9-4.85-11.21C370.38,320.78,369.34,319.21,368.76,314.62Z"/><path class="cls-14" d="M423.26,422.31c-15.37,11.44-31.79,18.47-50.68,11.51-10.93-4-17.84-12.83-22.74-26.24C374.84,417.27,399.15,418.67,423.26,422.31Z"/><path class="cls-15" d="M371,276.1c0,11.48-8.57,20.32-19.83,20.48a17.51,17.51,0,0,1-18.07-17.2c-.2-11.79,9.65-21.32,21.74-21.05C364.14,258.53,371,266.09,371,276.1Z"/><path class="cls-16" d="M494.77,308.62c.17,10.14-7.26,17.67-17.31,17.56-8.82-.09-16.66-8.09-17-17.35a17.69,17.69,0,0,1,17-18.32C486.44,290.29,494.61,298.83,494.77,308.62Z"/><path class="cls-17" d="M426.17,307.66c-.56,2.43-2.36,2.91-4.44,2.7a3.73,3.73,0,0,1-3.55-3.86c-.11-2.21,1.53-2.58,3.24-2.45C423.73,304.23,426,304.62,426.17,307.66Z"/><path class="cls-3" d="M499.11,219.59c1.62.52,3.09,1.18,2.94,3.25,0,.29-.35.8-.51.79a4,4,0,0,1-3.6-2.79C498.34,220.43,498.73,220,499.11,219.59Z"/><path class="cls-18" d="M379.07,358.31l.09-8.08a4.73,4.73,0,0,1,1.46-2.55c14.67-9.34,43.77-1.18,52.27,14.61-6.31,13.55-15.88,24.51-27.7,33.39-10,7.48-15.94,5.48-20.6-6.06-3-7.49-4.13-15.36-4.57-23.36C379,363.69,380.11,360.87,379.07,358.31Z"/><path class="cls-19" d="M432.89,362.29a39,39,0,0,1-4-2.93c-14.61-13.87-31.45-15.44-49.74-9.12-.23-11.51.77-13.63,10.68-15.22,16-2.58,31-.56,42.89,12C439.47,354.17,439.57,354.07,432.89,362.29Z"/><path class="cls-19" d="M379.07,358.31c2,2.45,1.52,5.2.95,8C378.13,363.8,378.69,361,379.07,358.31Z"/><path class="cls-20" d="M355.37,261.9a7,7,0,0,1,7.41,7.43c-.08,4.38-3.75,8.66-7.72,9s-7.78-3.1-8.11-7.12C346.58,266.79,350.9,262,355.37,261.9Z"/><path class="cls-21" d="M476.71,294.16c4.19-.14,7.24,2.36,7.53,6.15a7.55,7.55,0,0,1-7.15,7.91c-4.31.33-8.16-2.83-8.21-6.73S472.46,294.3,476.71,294.16Z"/></g></g></svg>