<?xml version="1.0" encoding="utf-8"?>
<!-- Generator: Adobe Illustrator 21.0.0, SVG Export Plug-In . SVG Version: 6.00 Build 0)  -->
<svg version="1.1" id="图层_1" xmlns="http://www.w3.org/2000/svg" xmlns:xlink="http://www.w3.org/1999/xlink" x="0px" y="0px"
	 viewBox="0 0 1000 1000" style="enable-background:new 0 0 1000 1000;" xml:space="preserve">
<style type="text/css">
	.st0{fill:#DB6F71;}
	.st1{fill:#7C181D;}
	.st2{fill:#FFFFFF;}
	.st3{fill:#E84729;}
	.st4{fill:#231815;}
</style>
<path class="st0" d="M503.1,686.3c-48.4-2.7-79.4-65.8-97.1-119.4c6.2-4.8,25.9-18.6,55.5-25.8c45-11,91-2.2,137,26.1
	C581.8,623.8,551.9,689.2,503.1,686.3z"/>
<path class="st1" d="M600.6,560c-25.2-15.3-50.9-24.9-76.4-28.8c-21.7-3.3-43.4-2.3-64.4,2.8c-28.1,6.9-47.8,19.5-56.1,25.6
	c-7.7-24.8-12.4-46.5-14.5-56.8c12.1,4.4,25.5,5.8,40,4.1c34.8-4,46.9-20,55.7-31.7c5.6-7.5,8.9-11.4,14.8-11.4
	c6.9,0,15.1,7,24.6,15.2c15,12.8,33.4,28.7,59.2,28.7c0.9,0,1.9,0,2.8-0.1c9.3-0.4,18.4-2.1,27.2-5
	C611.7,512.8,607.6,534.8,600.6,560z"/>
<ellipse transform="matrix(0.2298 -0.9732 0.9732 0.2298 -10.5714 468.7469)" class="st2" cx="290.9" cy="241.1" rx="31.4" ry="31.4"/>
<ellipse transform="matrix(0.9732 -0.2298 0.2298 0.9732 -36.3807 169.4288)" class="st2" cx="709.2" cy="240.9" rx="31.4" ry="31.4"/>
<path class="st3" d="M129.3,364.7c-60.6,0-109.9,49.3-109.9,109.9s49.3,109.9,109.9,109.9s109.9-49.3,109.9-109.9
	S189.9,364.7,129.3,364.7z"/>
<path class="st3" d="M870.7,364.9c-60.6,0-109.9,49.3-109.9,109.9s49.3,109.9,109.9,109.9s109.9-49.3,109.9-109.9
	S931.3,364.9,870.7,364.9z"/>
<path class="st4" d="M654.9,475.2l-5.7-4.4c-0.1,0.1-11.3,14.2-32.4,23c-10,4.1-20,6.3-30.8,6.7c-24.4,1.1-42.4-14.4-57-26.9
	c-10.6-9.1-19.7-16.9-29.3-16.9c-9.8,0-15,6.9-20.5,14.2c-8.5,11.2-19,25.2-50.8,28.9c-15.7,1.9-29.9-0.2-42.3-6.1
	c-20.2-9.5-28.8-26.1-28.9-26.3l-6.4,3.2c0.4,0.7,9.3,18,30.6,28.7c1.3,7.1,6.8,35.1,17.1,67.3c18.2,56.2,51.1,123.8,104.3,126.8
	c1.2,0.1,2.4,0.1,3.6,0.1c52.1,0,83-68.7,99.9-127c9.1-31.6,13.8-59.2,15.1-66.9C643,490.2,654.4,475.8,654.9,475.2z M503.1,686.3
	c-48.4-2.7-79.4-65.8-97.1-119.4c6.2-4.8,25.9-18.6,55.5-25.8c45-11,91-2.2,137,26.1C581.8,623.8,551.9,689.2,503.1,686.3z
	 M600.6,560c-25.2-15.3-50.9-24.9-76.4-28.8c-21.7-3.3-43.4-2.3-64.4,2.8c-28.1,6.9-47.8,19.5-56.1,25.6
	c-7.7-24.8-12.4-46.5-14.5-56.8c12.1,4.4,25.5,5.8,40,4.1c34.8-4,46.9-20,55.7-31.7c5.6-7.5,8.9-11.4,14.8-11.4
	c6.9,0,15.1,7,24.6,15.2c15,12.8,33.4,28.7,59.2,28.7c0.9,0,1.9,0,2.8-0.1c9.3-0.4,18.4-2.1,27.2-5
	C611.7,512.9,607.6,534.8,600.6,560z M266.1,183.6c-45.5,0-82.3,36.8-82.3,82.3s36.8,82.3,82.3,82.3s82.3-36.8,82.3-82.3
	S311.6,183.6,266.1,183.6z M321.6,248.2c-4,16.9-20.9,27.3-37.8,23.3s-27.3-20.9-23.3-37.8c4-16.9,20.9-27.3,37.8-23.3
	C315.1,214.4,325.5,231.3,321.6,248.2z M734.3,183.6c-45.5,0-82.3,36.8-82.3,82.3s36.8,82.3,82.3,82.3s82.3-36.8,82.3-82.3
	S779.8,183.6,734.3,183.6z M716.5,271.4c-16.9,4-33.8-6.5-37.8-23.3c-4-16.9,6.5-33.8,23.3-37.8c16.9-4,33.8,6.5,37.8,23.3
	C743.8,250.5,733.4,267.4,716.5,271.4z M129.3,591.7c-64.6,0-117.1-52.5-117.1-117.1s52.5-117.1,117.1-117.1S246.4,410,246.4,474.6
	S193.9,591.7,129.3,591.7z M129.3,364.7c-60.6,0-109.9,49.3-109.9,109.9s49.3,109.9,109.9,109.9s109.9-49.3,109.9-109.9
	S189.9,364.7,129.3,364.7z M870.7,591.9c-64.6,0-117.1-52.5-117.1-117.1s52.5-117.1,117.1-117.1s117.1,52.5,117.1,117.1
	S935.3,591.9,870.7,591.9z M870.7,364.9c-60.6,0-109.9,49.3-109.9,109.9s49.3,109.9,109.9,109.9s109.9-49.3,109.9-109.9
	S931.3,364.9,870.7,364.9z M511.1,354.1c-2.8-1-7-0.5-11.5,2.5c-4.5-3-8.6-3.4-11.5-2.5c-18.9,6.4,11.5,23.4,11.5,23.4
	S530,360.5,511.1,354.1z"/>
</svg>
